<svg width="24" height="24" viewBox="0 0 24 24" xmlns="http://www.w3.org/2000/svg">
<path fill-rule="evenodd" clip-rule="evenodd" d="M18.7886 3C18.7148 3 18.6418 3.01456 18.5739 3.04272C18.506 3.07089 18.4447 3.11203 18.3933 3.16357L18.3892 3.16772L9.7112 11.7772L9.21745 14.7659L12.1787 14.2352L20.8375 5.58448C20.8893 5.53336 20.9302 5.47279 20.958 5.40637C20.9858 5.33995 21 5.26887 21 5.19719C21 5.12552 20.9858 5.05444 20.958 4.98802C20.9302 4.9216 20.8893 4.86102 20.8376 4.8099L20.8346 4.80702L19.1839 3.16358C19.1326 3.11204 19.0712 3.07088 19.0033 3.04272C18.9354 3.01456 18.8624 3 18.7886 3ZM17.8076 1.19533C18.1186 1.06635 18.452 1 18.7886 1C19.1252 1 19.4586 1.06635 19.7696 1.19533C20.0799 1.32403 20.3619 1.51261 20.5992 1.75045C20.5997 1.75097 20.6003 1.7515 20.6008 1.75203L22.2428 3.38678C22.2434 3.38734 22.2439 3.38789 22.2445 3.38845C22.4833 3.62474 22.6732 3.90592 22.8029 4.21596C22.933 4.52675 23 4.86025 23 5.19719C23 5.53414 22.933 5.86764 22.8029 6.17843C22.6733 6.48819 22.4837 6.76913 22.2452 7.00529L13.3705 15.8717C13.2261 16.0159 13.041 16.1126 12.8401 16.1486L8.17641 16.9843C7.85665 17.0416 7.52899 16.94 7.29773 16.7119C7.06647 16.4838 6.96044 16.1575 7.01339 15.837L7.79066 11.1321C7.82493 10.9246 7.92373 10.7332 8.07299 10.5851L16.9787 1.74973C17.2159 1.51223 17.4977 1.3239 17.8076 1.19533Z" />
<path fill-rule="evenodd" clip-rule="evenodd" d="M3.56522 5C3.41531 5 3.27155 5.05955 3.16555 5.16555C3.05955 5.27155 3 5.41531 3 5.56522V20.4348C3 20.5847 3.05955 20.7285 3.16555 20.8345C3.27155 20.9405 3.41531 21 3.56522 21H18.4348C18.5847 21 18.7285 20.9405 18.8345 20.8345C18.9405 20.7285 19 20.5847 19 20.4348V15.7391C19 15.1868 19.4477 14.7391 20 14.7391C20.5523 14.7391 21 15.1868 21 15.7391V20.4348C21 21.1151 20.7297 21.7676 20.2487 22.2487C19.7676 22.7297 19.1151 23 18.4348 23H3.56522C2.88488 23 2.23241 22.7297 1.75133 22.2487C1.27026 21.7676 1 21.1151 1 20.4348V5.56522C1 4.88488 1.27026 4.23241 1.75133 3.75133C2.23241 3.27026 2.88488 3 3.56522 3H8.26087C8.81315 3 9.26087 3.44772 9.26087 4C9.26087 4.55228 8.81315 5 8.26087 5H3.56522Z" />
</svg>
