<svg width="24" height="24" viewBox="0 0 24 24" xmlns="http://www.w3.org/2000/svg">
<path fill-rule="evenodd" clip-rule="evenodd" d="M1.50049 3.5C1.50049 2.39543 2.39592 1.5 3.50049 1.5H6.87549C7.42777 1.5 7.87549 1.94772 7.87549 2.5C7.87549 3.05228 7.42777 3.5 6.87549 3.5L3.50049 3.5V7.75C3.50049 8.30228 3.05277 8.75 2.50049 8.75C1.9482 8.75 1.50049 8.30228 1.50049 7.75V3.5ZM16.1255 2.5C16.1255 1.94772 16.5732 1.5 17.1255 1.5H20.5005C21.6051 1.5 22.5005 2.39543 22.5005 3.5V7.75C22.5005 8.30228 22.0528 8.75 21.5005 8.75C20.9482 8.75 20.5005 8.30228 20.5005 7.75V3.5H17.1255C16.5732 3.5 16.1255 3.05228 16.1255 2.5ZM7.80029 5.75C8.35258 5.75 8.80029 6.19772 8.80029 6.75V17.25C8.80029 17.8023 8.35258 18.25 7.80029 18.25C7.24801 18.25 6.80029 17.8023 6.80029 17.25V6.75C6.80029 6.19772 7.24801 5.75 7.80029 5.75ZM12.0005 5.75C12.5528 5.75 13.0005 6.19772 13.0005 6.75V17.25C13.0005 17.8023 12.5528 18.25 12.0005 18.25C11.4482 18.25 11.0005 17.8023 11.0005 17.25V6.75C11.0005 6.19772 11.4482 5.75 12.0005 5.75ZM16.2007 5.75C16.753 5.75 17.2007 6.19772 17.2007 6.75V17.25C17.2007 17.8023 16.753 18.25 16.2007 18.25C15.6484 18.25 15.2007 17.8023 15.2007 17.25V6.75C15.2007 6.19772 15.6484 5.75 16.2007 5.75ZM2.50049 15.25C3.05277 15.25 3.50049 15.6977 3.50049 16.25V20.5H6.87549C7.42777 20.5 7.87549 20.9477 7.87549 21.5C7.87549 22.0523 7.42777 22.5 6.87549 22.5H3.50049C2.39592 22.5 1.50049 21.6046 1.50049 20.5V16.25C1.50049 15.6977 1.9482 15.25 2.50049 15.25ZM21.5005 15.25C22.0528 15.25 22.5005 15.6977 22.5005 16.25V20.5C22.5005 21.6046 21.6051 22.5 20.5005 22.5H17.1255C16.5732 22.5 16.1255 22.0523 16.1255 21.5C16.1255 20.9477 16.5732 20.5 17.1255 20.5H20.5005V16.25C20.5005 15.6977 20.9482 15.25 21.5005 15.25Z"/>
</svg>
