<svg width="24" height="24" viewBox="0 0 24 24" xmlns="http://www.w3.org/2000/svg">
<path d="M12 12.6668C12.3682 12.6668 12.6667 12.3684 12.6667 12.0002C12.6667 11.632 12.3682 11.3335 12 11.3335C11.6319 11.3335 11.3334 11.632 11.3334 12.0002C11.3334 12.3684 11.6319 12.6668 12 12.6668Z" />
<path fill-rule="evenodd" clip-rule="evenodd" d="M12 12.3335C12.1841 12.3335 12.3334 12.1843 12.3334 12.0002C12.3334 11.8161 12.1841 11.6668 12 11.6668C11.8159 11.6668 11.6667 11.8161 11.6667 12.0002C11.6667 12.1843 11.8159 12.3335 12 12.3335ZM10.3334 12.0002C10.3334 11.0797 11.0796 10.3335 12 10.3335C12.9205 10.3335 13.6667 11.0797 13.6667 12.0002C13.6667 12.9206 12.9205 13.6668 12 13.6668C11.0796 13.6668 10.3334 12.9206 10.3334 12.0002Z" />
<path d="M16.6667 12.6668C17.0349 12.6668 17.3333 12.3684 17.3333 12.0002C17.3333 11.632 17.0349 11.3335 16.6667 11.3335C16.2985 11.3335 16 11.632 16 12.0002C16 12.3684 16.2985 12.6668 16.6667 12.6668Z" />
<path fill-rule="evenodd" clip-rule="evenodd" d="M16.6667 12.3335C16.8508 12.3335 17 12.1843 17 12.0002C17 11.8161 16.8508 11.6668 16.6667 11.6668C16.4826 11.6668 16.3333 11.8161 16.3333 12.0002C16.3333 12.1843 16.4826 12.3335 16.6667 12.3335ZM15 12.0002C15 11.0797 15.7462 10.3335 16.6667 10.3335C17.5871 10.3335 18.3333 11.0797 18.3333 12.0002C18.3333 12.9206 17.5871 13.6668 16.6667 13.6668C15.7462 13.6668 15 12.9206 15 12.0002Z" />
<path d="M7.33329 12.6668C7.70148 12.6668 7.99996 12.3684 7.99996 12.0002C7.99996 11.632 7.70148 11.3335 7.33329 11.3335C6.9651 11.3335 6.66663 11.632 6.66663 12.0002C6.66663 12.3684 6.9651 12.6668 7.33329 12.6668Z" />
<path fill-rule="evenodd" clip-rule="evenodd" d="M7.33329 12.3335C7.51739 12.3335 7.66663 12.1843 7.66663 12.0002C7.66663 11.8161 7.51739 11.6668 7.33329 11.6668C7.1492 11.6668 6.99996 11.8161 6.99996 12.0002C6.99996 12.1843 7.1492 12.3335 7.33329 12.3335ZM5.66663 12.0002C5.66663 11.0797 6.41282 10.3335 7.33329 10.3335C8.25377 10.3335 8.99996 11.0797 8.99996 12.0002C8.99996 12.9206 8.25377 13.6668 7.33329 13.6668C6.41282 13.6668 5.66663 12.9206 5.66663 12.0002Z" />
</svg>
