<svg width="24" height="24" viewBox="0 0 24 24" xmlns="http://www.w3.org/2000/svg">
<path fill-rule="evenodd" clip-rule="evenodd" d="M15.78 2.38782C14.9838 2.38782 14.2202 2.70412 13.6572 3.26715L4.46715 12.4571C3.52884 13.3955 3.00171 14.6681 3.00171 15.995C3.00171 17.322 3.52884 18.5946 4.46715 19.5329C5.40546 20.4712 6.67808 20.9984 8.00505 20.9984C9.33201 20.9984 10.6046 20.4712 11.5429 19.5329L20.7329 10.3429C21.1235 9.95241 21.7566 9.95241 22.1472 10.3429C22.5377 10.7335 22.5377 11.3666 22.1472 11.7571L12.9572 20.9471C11.6438 22.2605 9.86245 22.9984 8.00505 22.9984C6.14765 22.9984 4.36632 22.2605 3.05294 20.9471C1.73956 19.6338 1.00171 17.8524 1.00171 15.995C1.00171 14.1376 1.73956 12.3563 3.05294 11.0429L12.2429 1.85293C13.181 0.914836 14.4534 0.387817 15.78 0.387817C17.1067 0.387817 18.3791 0.914836 19.3172 1.85293C20.2553 2.79103 20.7823 4.06337 20.7823 5.39004C20.7823 6.71671 20.2553 7.98905 19.3172 8.92715L10.1172 18.1171C9.55434 18.68 8.79099 18.9962 7.99505 18.9962C7.1991 18.9962 6.43576 18.68 5.87294 18.1171C5.31012 17.5543 4.99393 16.791 4.99393 15.995C4.99393 15.1991 5.31012 14.4358 5.87294 13.8729L14.3634 5.39252C14.7541 5.00222 15.3873 5.0026 15.7776 5.39335C16.1679 5.78411 16.1675 6.41727 15.7767 6.80756L7.28715 15.2871C7.09967 15.4749 6.99393 15.7297 6.99393 15.995C6.99393 16.2606 7.09941 16.5152 7.28715 16.7029C7.4749 16.8907 7.72954 16.9962 7.99505 16.9962C8.26056 16.9962 8.51519 16.8907 8.70294 16.7029L17.9029 7.51294C18.4657 6.94995 18.7823 6.1861 18.7823 5.39004C18.7823 4.5938 18.466 3.83017 17.9029 3.26715C17.3399 2.70412 16.5763 2.38782 15.78 2.38782Z"/>
</svg>
