<svg width="24" height="24" viewBox="0 0 24 24" xmlns="http://www.w3.org/2000/svg">
<path fill-rule="evenodd" clip-rule="evenodd" d="M3.53846 7C3.27768 7 3 7.2313 3 7.6V12.4C3 12.7687 3.27768 13 3.53846 13H20.4615C20.7223 13 21 12.7687 21 12.4V7.6C21 7.2313 20.7223 7 20.4615 7H3.53846ZM1 7.6C1 6.20139 2.0999 5 3.53846 5H20.4615C21.9001 5 23 6.20139 23 7.6V12.4C23 13.7986 21.9001 15 20.4615 15H3.53846C2.0999 15 1 13.7986 1 12.4V7.6Z" />
<path fill-rule="evenodd" clip-rule="evenodd" d="M4 13C4.55228 13 5 13.4477 5 14V20.5455C5 20.666 5.04789 20.7816 5.13313 20.8669C5.21838 20.9521 5.33399 21 5.45455 21H18.5455C18.666 21 18.7816 20.9521 18.8669 20.8669C18.9521 20.7816 19 20.666 19 20.5455V14C19 13.4477 19.4477 13 20 13C20.5523 13 21 13.4477 21 14V20.5455C21 21.1964 20.7414 21.8208 20.2811 22.2811C19.8208 22.7414 19.1964 23 18.5455 23H5.45455C4.80356 23 4.17924 22.7414 3.71892 22.2811C3.2586 21.8208 3 21.1964 3 20.5455V14C3 13.4477 3.44772 13 4 13Z" />
<path fill-rule="evenodd" clip-rule="evenodd" d="M12 5C12.5523 5 13 5.44772 13 6V22C13 22.5523 12.5523 23 12 23C11.4477 23 11 22.5523 11 22V6C11 5.44772 11.4477 5 12 5Z" />
<path fill-rule="evenodd" clip-rule="evenodd" d="M6.21917 1.37534C6.56418 0.94408 7.19347 0.874158 7.62473 1.21917L12 4.71941L16.3753 1.21917C16.8066 0.874158 17.4359 0.94408 17.7809 1.37534C18.1259 1.8066 18.056 2.4359 17.6247 2.78091L12.6247 6.78091C12.2595 7.07308 11.7406 7.07308 11.3753 6.78091L6.37534 2.78091C5.94408 2.4359 5.87416 1.8066 6.21917 1.37534Z" />
</svg>
