<svg width="24" height="24" viewBox="0 0 24 24" xmlns="http://www.w3.org/2000/svg">
<path fill-rule="evenodd" clip-rule="evenodd" d="M3.53846 3C3.24108 3 3 3.24108 3 3.53846V20.4615C3 20.7589 3.24108 21 3.53846 21H20.4615C20.7589 21 21 20.7589 21 20.4615V3.53846C21 3.24108 20.7589 3 20.4615 3H3.53846ZM1 3.53846C1 2.13651 2.13651 1 3.53846 1H20.4615C21.8635 1 23 2.13651 23 3.53846V20.4615C23 21.8635 21.8635 23 20.4615 23H3.53846C2.13651 23 1 21.8635 1 20.4615V3.53846Z" />
<path fill-rule="evenodd" clip-rule="evenodd" d="M12.3062 7.88737C12.0014 7.82674 11.6854 7.85786 11.3983 7.9768C11.1112 8.09573 10.8657 8.29715 10.6931 8.55557C10.5204 8.81399 10.4282 9.11781 10.4282 9.42861C10.4282 9.98089 9.98051 10.4286 9.42822 10.4286C8.87594 10.4286 8.42822 9.98089 8.42822 9.42861C8.42822 8.72225 8.63768 8.03175 9.03012 7.44443C9.42255 6.85711 9.98033 6.39935 10.6329 6.12904C11.2855 5.85873 12.0036 5.788 12.6964 5.9258C13.3892 6.06361 14.0256 6.40375 14.525 6.90323C15.0245 7.4027 15.3647 8.03907 15.5025 8.73186C15.6403 9.42465 15.5695 10.1427 15.2992 10.7953C15.0289 11.4479 14.5711 12.0057 13.9838 12.3981C13.6794 12.6015 13.3473 12.7558 12.9997 12.8572V13.7143C12.9997 14.2666 12.5519 14.7143 11.9997 14.7143C11.4474 14.7143 10.9997 14.2666 10.9997 13.7143V12C10.9997 11.4478 11.4474 11 11.9997 11C12.3105 11 12.6143 10.9079 12.8727 10.7352C13.1311 10.5625 13.3325 10.3171 13.4515 10.03C13.5704 9.74283 13.6015 9.42687 13.5409 9.12204C13.4803 8.81721 13.3306 8.53721 13.1108 8.31744C12.8911 8.09767 12.611 7.94801 12.3062 7.88737Z" />
<path d="M11.9996 16.2858C11.7453 16.2858 11.4967 16.3612 11.2853 16.5024C11.0738 16.6437 10.909 16.8445 10.8117 17.0795C10.7144 17.3144 10.689 17.5729 10.7386 17.8223C10.7882 18.0717 10.9106 18.3008 11.0904 18.4806C11.2703 18.6604 11.4993 18.7829 11.7488 18.8325C11.9982 18.8821 12.2567 18.8566 12.4916 18.7593C12.7265 18.662 12.9273 18.4972 13.0686 18.2858C13.2099 18.0744 13.2853 17.8258 13.2853 17.5715C13.2809 17.2319 13.144 16.9074 12.9038 16.6673C12.6636 16.4271 12.3392 16.2902 11.9996 16.2858Z" />
</svg>
