<svg width="24" height="24" viewBox="0 0 24 24" xmlns="http://www.w3.org/2000/svg">
<g clip-path="url(#clip0_847_6071)">
<path fill-rule="evenodd" clip-rule="evenodd" d="M14.1886 1.64756C14.5623 1.49278 14.9924 1.57834 15.2784 1.86433L23.8498 10.4358C24.2273 10.8132 24.2417 11.4206 23.8827 11.8155L15.3112 21.2441C15.0333 21.5498 14.596 21.6531 14.2107 21.5042C13.8254 21.3552 13.5713 20.9846 13.5713 20.5714V16.4286H11.9999C9.70368 16.4286 8.36238 16.8326 7.00151 17.686C5.95644 18.3414 4.91936 19.2419 3.47555 20.4956C2.89324 21.0013 2.24476 21.5644 1.50291 22.192C1.16068 22.4816 0.667567 22.508 0.296362 22.2566C-0.0748426 22.0053 -0.233428 21.5376 -0.0916667 21.1124C0.0698798 20.6277 0.234865 20.0986 0.409341 19.539C1.12185 17.2537 1.99265 14.4609 3.43393 12.1188C5.28324 9.11364 8.14296 6.7143 12.857 6.7143H13.5713V2.57144C13.5713 2.16698 13.8149 1.80234 14.1886 1.64756ZM15.5713 4.98565V7.7143C15.5713 8.26658 15.1236 8.7143 14.5713 8.7143H12.857C8.99965 8.7143 6.71651 10.6007 5.13725 13.167C4.15158 14.7687 3.46787 16.5839 2.88452 18.3603C4.01403 17.388 4.984 16.5904 5.93896 15.9916C7.67194 14.9049 9.39664 14.4286 11.9999 14.4286H14.5713C15.1236 14.4286 15.5713 14.8763 15.5713 15.4286V17.9848L21.7614 11.1757L15.5713 4.98565Z" />
</g>
<defs>
<clipPath id="clip0_847_6071">
<rect width="24" height="24"/>
</clipPath>
</defs>
</svg>
