<svg width="24" height="24" viewBox="0 0 24 24" xmlns="http://www.w3.org/2000/svg">
<g clip-path="url(#clip0_847_8732)">
<path fill-rule="evenodd" clip-rule="evenodd" d="M2.0586 11.5257C1.94257 11.6564 1.87842 11.8251 1.87842 12C1.87842 12.1748 1.94257 12.3436 2.0586 12.4742C2.92701 13.4081 4.33451 14.7668 6.08148 15.8876C7.83765 17.0142 9.86917 17.8571 12.0001 17.8571C14.131 17.8571 16.1625 17.0142 17.9187 15.8876C19.6657 14.7668 21.0732 13.4081 21.9416 12.4742C22.0576 12.3436 22.1217 12.1748 22.1217 12C22.1217 11.8251 22.0576 11.6564 21.9416 11.5257C21.0732 10.5918 19.6657 9.23311 17.9187 8.11237C16.1625 6.98573 14.131 6.14282 12.0001 6.14282C9.86917 6.14282 7.83765 6.98573 6.08148 8.11237C4.33451 9.2331 2.92701 10.5918 2.0586 11.5257ZM5.00155 6.42899C6.93966 5.18563 9.34814 4.14282 12.0001 4.14282C14.652 4.14282 17.0605 5.18563 18.9986 6.42899C20.9419 7.67569 22.4806 9.16761 23.4126 10.1707L23.4224 10.1814C23.8726 10.6801 24.1217 11.3281 24.1217 12C24.1217 12.6718 23.8726 13.3198 23.4224 13.8185L23.4126 13.8292C22.4806 14.8323 20.9419 16.3242 18.9986 17.5709C17.0605 18.8143 14.652 19.8571 12.0001 19.8571C9.34814 19.8571 6.93966 18.8143 5.00155 17.5709C3.05823 16.3242 1.51959 14.8323 0.587522 13.8292L0.577724 13.8185C0.127586 13.3198 -0.121582 12.6718 -0.121582 12C-0.121582 11.3281 0.127586 10.6801 0.577724 10.1814L0.587522 10.1707C1.51959 9.16761 3.05823 7.67569 5.00155 6.42899Z" />
<path fill-rule="evenodd" clip-rule="evenodd" d="M12.0001 9.57141C10.6588 9.57141 9.57153 10.6587 9.57153 12C9.57153 13.3412 10.6588 14.4286 12.0001 14.4286C13.3414 14.4286 14.4287 13.3412 14.4287 12C14.4287 10.6587 13.3414 9.57141 12.0001 9.57141ZM7.57153 12C7.57153 9.55415 9.55427 7.57141 12.0001 7.57141C14.4459 7.57141 16.4287 9.55415 16.4287 12C16.4287 14.4458 14.4459 16.4286 12.0001 16.4286C9.55427 16.4286 7.57153 14.4458 7.57153 12Z" />
</g>
<defs>
<clipPath id="clip0_847_8732">
<rect width="24" height="24"/>
</clipPath>
</defs>
</svg>
