<svg width="24" height="24" viewBox="0 0 24 24" xmlns="http://www.w3.org/2000/svg">
<g clip-path="url(#clip0_847_8562)">
<path fill-rule="evenodd" clip-rule="evenodd" d="M4.30124 3.68555C5.94573 2.58673 7.87913 2.00024 9.85694 2.00024C10.4092 2.00024 10.8569 2.44796 10.8569 3.00024C10.8569 3.55253 10.4092 4.00024 9.85694 4.00024C8.27469 4.00024 6.72797 4.46944 5.41238 5.34849C4.09678 6.22754 3.0714 7.47697 2.4659 8.93878C1.8604 10.4006 1.70197 12.0091 2.01066 13.561C2.31934 15.1128 3.08126 16.5383 4.20008 17.6571C5.3189 18.7759 6.74437 19.5378 8.29622 19.8465C9.84806 20.1552 11.4566 19.9968 12.9184 19.3913C14.3802 18.7858 15.6296 17.7604 16.5087 16.4448C17.3877 15.1292 17.8569 13.5825 17.8569 12.0002V6.2716L15.2783 8.85021C14.8878 9.24073 14.2546 9.24073 13.8641 8.85021C13.4736 8.45968 13.4736 7.82652 13.8641 7.43599L18.1498 3.15028C18.3374 2.96274 18.5917 2.85739 18.8569 2.85739C19.1222 2.85739 19.3765 2.96274 19.564 3.15028L23.8498 7.43599C24.2403 7.82652 24.2403 8.45968 23.8498 8.85021C23.4592 9.24073 22.8261 9.24073 22.4355 8.85021L19.8569 6.2716V12.0002C19.8569 13.9781 19.2705 15.9115 18.1716 17.5559C17.0728 19.2004 15.511 20.4822 13.6838 21.239C11.8565 21.9959 9.84585 22.194 7.90604 21.8081C5.96622 21.4222 4.1844 20.4698 2.78587 19.0713C1.38735 17.6728 0.434937 15.891 0.0490851 13.9511C-0.336767 12.0113 -0.138733 10.0007 0.618143 8.17341C1.37502 6.34615 2.65675 4.78436 4.30124 3.68555Z" />
</g>
<defs>
<clipPath id="clip0_847_8562">
<rect width="24" height="24"/>
</clipPath>
</defs>
</svg>
