<svg width="24" height="24" viewBox="0 0 24 24" xmlns="http://www.w3.org/2000/svg">
<g clip-path="url(#clip0_847_6072)">
<path fill-rule="evenodd" clip-rule="evenodd" d="M-0.143066 12C-0.143066 5.29372 5.29348 -0.142822 11.9998 -0.142822C18.7061 -0.142822 24.1426 5.29372 24.1426 12C24.1426 18.7064 18.7061 24.1429 11.9998 24.1429C5.29348 24.1429 -0.143066 18.7064 -0.143066 12ZM11.9998 1.85718C6.39805 1.85718 1.85693 6.39829 1.85693 12C1.85693 17.6018 6.39805 22.1429 11.9998 22.1429C17.6015 22.1429 22.1426 17.6018 22.1426 12C22.1426 6.39829 17.6015 1.85718 11.9998 1.85718ZM10.1355 8.7215C10.526 9.11202 10.526 9.74519 10.1355 10.1357L9.27115 11H17.1426C17.6949 11 18.1426 11.4478 18.1426 12C18.1426 12.5523 17.6949 13 17.1426 13H9.27115L10.1355 13.8644C10.526 14.2549 10.526 14.888 10.1355 15.2786C9.74495 15.6691 9.11178 15.6691 8.72126 15.2786L6.14983 12.7071C5.7593 12.3166 5.7593 11.6835 6.14983 11.2929L8.72126 8.7215C9.11178 8.33098 9.74495 8.33097 10.1355 8.7215Z" />
</g>
<defs>
<clipPath id="clip0_847_6072">
<rect width="24" height="24"/>
</clipPath>
</defs>
</svg>
