<svg width="24" height="24" viewBox="0 0 24 24" xmlns="http://www.w3.org/2000/svg">
<path fill-rule="evenodd" clip-rule="evenodd" d="M19.7071 4.29295C20.0976 4.68348 20.0976 5.31664 19.7071 5.70717L5.70711 19.7072C5.31658 20.0977 4.68342 20.0977 4.29289 19.7072C3.90237 19.3166 3.90237 18.6835 4.29289 18.293L18.2929 4.29295C18.6834 3.90243 19.3166 3.90243 19.7071 4.29295Z" />
<path fill-rule="evenodd" clip-rule="evenodd" d="M4.29289 4.29295C4.68342 3.90243 5.31658 3.90243 5.70711 4.29295L19.7071 18.293C20.0976 18.6835 20.0976 19.3166 19.7071 19.7072C19.3166 20.0977 18.6834 20.0977 18.2929 19.7072L4.29289 5.70717C3.90237 5.31664 3.90237 4.68348 4.29289 4.29295Z" />
</svg>
