<svg width="24" height="24" viewBox="0 0 24 24" xmlns="http://www.w3.org/2000/svg">
<path fill-rule="evenodd" clip-rule="evenodd" d="M5.5 4V20H18.5V8.66421L13.8358 4H5.5ZM4.01256 2.51256C4.34075 2.18438 4.78587 2 5.25 2H14.25C14.5152 2 14.7696 2.10536 14.9571 2.29289L20.2071 7.54289C20.3946 7.73043 20.5 7.98478 20.5 8.25V20.25C20.5 20.7141 20.3156 21.1592 19.9874 21.4874C19.6592 21.8156 19.2141 22 18.75 22H5.25C4.78587 22 4.34075 21.8156 4.01256 21.4874C3.68437 21.1592 3.5 20.7141 3.5 20.25V3.75C3.5 3.28587 3.68438 2.84075 4.01256 2.51256Z"/>
<path fill-rule="evenodd" clip-rule="evenodd" d="M14.25 2C14.8023 2 15.25 2.44772 15.25 3V7.25H19.5C20.0523 7.25 20.5 7.69772 20.5 8.25C20.5 8.80228 20.0523 9.25 19.5 9.25H14.25C13.6977 9.25 13.25 8.80228 13.25 8.25V3C13.25 2.44772 13.6977 2 14.25 2Z"/>
<path fill-rule="evenodd" clip-rule="evenodd" d="M8.66789 13.9179C9.05842 13.5274 9.69158 13.5274 10.0821 13.9179L12 15.8358L13.9179 13.9179C14.3084 13.5274 14.9416 13.5274 15.3321 13.9179C15.7226 14.3084 15.7226 14.9416 15.3321 15.3321L12.7071 17.9571C12.3166 18.3476 11.6834 18.3476 11.2929 17.9571L8.66789 15.3321C8.27737 14.9416 8.27737 14.3084 8.66789 13.9179Z"/>
<path fill-rule="evenodd" clip-rule="evenodd" d="M12 10.25C12.5523 10.25 13 10.6977 13 11.25V17.25C13 17.8023 12.5523 18.25 12 18.25C11.4477 18.25 11 17.8023 11 17.25V11.25C11 10.6977 11.4477 10.25 12 10.25Z"/>
</svg>
