<svg width="24" height="24" viewBox="0 0 24 24" xmlns="http://www.w3.org/2000/svg">
<path fill-rule="evenodd" clip-rule="evenodd" d="M15.75 4.41413C15.5327 4.63141 15.3154 4.84863 15.0982 5.06581C14.7868 5.37716 14.4754 5.68845 14.1641 5.99978L18 9.83571L19.5858 8.24992L15.75 4.41413ZM16.5858 11.2499L12.7503 7.41442C12.3936 7.77142 12.0369 8.12845 11.6802 8.4855C9.37167 10.7963 7.06241 13.1078 4.74944 15.4154C4.74832 16.4133 4.74885 17.4111 4.74937 18.4099C4.74952 18.6897 4.74966 18.9695 4.74978 19.2494L8.5858 19.2499L16.5858 11.2499ZM11.4142 19.2499H20.25C20.8023 19.2499 21.25 19.6976 21.25 20.2499C21.25 20.8022 20.8023 21.2499 20.25 21.2499H4.75005C3.64532 21.2499 2.75021 20.3544 2.74978 19.2502C2.74966 18.9709 2.74952 18.6914 2.74937 18.4119C2.74885 17.4128 2.74832 16.4127 2.74945 15.4128C2.75004 14.8821 2.96164 14.3739 3.33685 13.9995C5.64842 11.6934 7.95608 9.38347 10.2644 7.07289C10.8571 6.47965 11.4498 5.88636 12.0426 5.29308C12.5899 4.74538 13.1376 4.1978 13.6851 3.65043C13.959 3.37667 14.2328 3.10296 14.5064 2.82931C14.6686 2.66552 14.8615 2.53536 15.0741 2.44633C15.2882 2.3567 15.5179 2.31055 15.75 2.31055C15.9821 2.31055 16.2118 2.35671 16.4259 2.44633C16.6385 2.53536 16.8315 2.66552 16.9936 2.8293C16.9947 2.83041 16.9958 2.83151 16.9969 2.83262L21.1707 7.00637C21.3344 7.16852 21.4646 7.36143 21.5536 7.57404C21.6432 7.78809 21.6894 8.01784 21.6894 8.24992C21.6894 8.48199 21.6432 8.71174 21.5536 8.9258C21.4646 9.13844 21.3344 9.33138 21.1706 9.49354C21.1695 9.49462 21.1684 9.49571 21.1673 9.49679L11.4142 19.2499Z"/>
</svg>
