<svg width="24" height="24" viewBox="0 0 24 24" xmlns="http://www.w3.org/2000/svg">
<g clip-path="url(#clip0_847_8731)">
<path fill-rule="evenodd" clip-rule="evenodd" d="M20.3233 8.59029C20.6915 8.17871 21.3237 8.14359 21.7353 8.51185C22.4175 9.12228 22.9893 9.71222 23.4147 10.1731L23.4223 10.1813L23.4223 10.1814C23.8724 10.6801 24.1216 11.3281 24.1216 11.9999C24.1216 12.6718 23.8724 13.3198 23.4223 13.8185L23.4125 13.8292C22.4804 14.8323 20.9418 16.3242 18.9985 17.5709C17.0603 18.8143 14.6519 19.8571 11.9999 19.8571H11.3142C10.7619 19.8571 10.3142 19.4094 10.3142 18.8571C10.3142 18.3048 10.7619 17.8571 11.3142 17.8571H11.9999C14.1308 17.8571 16.1624 17.0142 17.9185 15.8875C19.6655 14.7668 21.073 13.4081 21.9414 12.4742C22.0574 12.3435 22.1216 12.1748 22.1216 11.9999C22.1216 11.8246 22.0571 11.6555 21.9405 11.5247C21.5437 11.095 21.0199 10.5555 20.4017 10.0023C19.9901 9.63407 19.955 9.00188 20.3233 8.59029Z" />
<path fill-rule="evenodd" clip-rule="evenodd" d="M2.0586 11.5257C1.94257 11.6564 1.87842 11.8251 1.87842 12C1.87842 12.176 1.94345 12.3459 2.06098 12.4769C3.52255 14.0779 5.23163 15.4339 7.12301 16.4932C7.60487 16.7631 7.77672 17.3725 7.50685 17.8543C7.23698 18.3362 6.62759 18.508 6.14573 18.2382C4.06654 17.0737 2.18786 15.5829 0.581441 13.8226L0.577712 13.8185L0.577724 13.8185C0.127586 13.3198 -0.121582 12.6718 -0.121582 12C-0.121582 11.3281 0.127586 10.6801 0.577724 10.1814L0.587522 10.1707C1.51959 9.16761 3.05823 7.67569 5.00155 6.42899C6.93966 5.18563 9.34814 4.14282 12.0001 4.14282L12.021 4.14304C14.074 4.18595 16.0832 4.74442 17.8638 5.76709C18.3427 6.04215 18.508 6.65336 18.233 7.13228C17.9579 7.6112 17.3467 7.77646 16.8678 7.50141C15.381 6.64751 13.7037 6.18041 11.9897 6.14283C9.86257 6.14556 7.8348 6.98756 6.08148 8.11237C4.33451 9.2331 2.92701 10.5918 2.0586 11.5257Z" />
<path fill-rule="evenodd" clip-rule="evenodd" d="M22.1358 1.8643C22.5263 2.25483 22.5263 2.88799 22.1358 3.27852L3.27864 22.1357C2.88812 22.5262 2.25495 22.5262 1.86443 22.1357C1.4739 21.7451 1.4739 21.112 1.86443 20.7214L20.7216 1.8643C21.1121 1.47378 21.7453 1.47378 22.1358 1.8643Z" />
<path fill-rule="evenodd" clip-rule="evenodd" d="M11.998 9.57141C11.3547 9.57197 10.7378 9.82777 10.2828 10.2827C9.8279 10.7377 9.57209 11.3545 9.57153 11.9979C9.5748 12.6402 9.83238 13.255 10.288 13.7079C10.6796 14.0973 10.6815 14.7304 10.2922 15.1221C9.90282 15.5138 9.26966 15.5157 8.87797 15.1263C8.04631 14.2996 7.57649 13.1768 7.57154 12.0042L7.57153 12C7.57153 10.8255 8.03811 9.69903 8.86863 8.86851C9.69915 8.03799 10.8256 7.57141 12.0001 7.57141H12.0043V7.57142C13.177 7.57636 14.2998 8.04619 15.1265 8.87785C15.5158 9.26954 15.5139 9.9027 15.1222 10.2921C14.7305 10.6814 14.0974 10.6795 13.708 10.2878C13.2552 9.83226 12.6403 9.57468 11.998 9.57141Z" />
<path fill-rule="evenodd" clip-rule="evenodd" d="M15.4878 12.8511C15.9645 13.13 16.1249 13.7425 15.846 14.2192C15.4518 14.893 14.8865 15.4507 14.2074 15.8356C13.727 16.108 13.1167 15.9393 12.8443 15.4589C12.572 14.9784 12.7407 14.3681 13.2211 14.0958C13.5935 13.8846 13.9035 13.5788 14.1197 13.2093C14.3986 12.7326 15.0111 12.5722 15.4878 12.8511Z" />
</g>
<defs>
<clipPath id="clip0_847_8731">
<rect width="24" height="24"/>
</clipPath>
</defs>
</svg>
