<svg width="24" height="24" viewBox="0 0 24 24" xmlns="http://www.w3.org/2000/svg">
<path fill-rule="evenodd" clip-rule="evenodd" d="M3.11529 4.08314C4.0428 12.7771 11.1857 19.9708 19.9175 20.9247C20.4829 20.9712 21.0023 20.4923 21 19.9241L21 19.92C21 17.6524 20.7448 16.9603 20.3778 16.5796C20.1796 16.3739 19.8755 16.1831 19.3221 15.9495C18.9564 15.7951 18.5476 15.6472 18.0498 15.4671C17.7706 15.3661 17.4635 15.255 17.1204 15.1269L17.1181 15.1261C16.7901 15.0028 16.5221 15.0547 16.1489 15.3169C15.8297 15.5412 15.5613 15.8229 15.238 16.1623C15.1031 16.3039 14.9587 16.4555 14.7971 16.6171C14.4788 16.9354 13.987 17.0018 13.5957 16.7793C10.9356 15.2668 8.73319 13.0643 7.22066 10.4043C6.99815 10.013 7.06454 9.52122 7.38285 9.20291C8.43235 8.15342 8.6047 7.55721 8.61217 7.00684C8.61673 6.67119 8.55836 6.2955 8.45481 5.76128C8.43798 5.67447 8.42008 5.584 8.40146 5.48992C8.31028 5.02912 8.202 4.48192 8.11929 3.85645C8.08078 3.59364 7.88343 3.29322 7.36158 3.03304C6.83972 2.77286 6.12038 2.62887 5.3839 2.65132C4.64093 2.67396 4.00034 2.86165 3.5954 3.13931C3.23645 3.38544 3.08039 3.67459 3.11529 4.08314ZM8.25396 1.24317C9.12449 1.67719 9.93838 2.4358 10.1001 3.58007L10.1014 3.58926L10.1014 3.58926C10.175 4.14775 10.2694 4.62536 10.3603 5.08559C10.3799 5.18454 10.3993 5.28269 10.4183 5.38066C10.5215 5.91338 10.6196 6.47078 10.612 7.03399C10.5977 8.08828 10.2191 9.01199 9.33472 10.0402C10.5095 11.8909 12.0756 13.4615 13.9225 14.6415C14.2391 14.3151 14.6127 13.952 14.999 13.6805C15.719 13.1746 16.6814 12.8258 17.8206 13.2535C18.109 13.3611 18.3903 13.463 18.6602 13.5608C19.1967 13.7551 19.688 13.9331 20.0999 14.1069C20.7366 14.3757 21.3379 14.6937 21.8178 15.1916C22.807 16.2179 22.9998 17.7122 23 19.918C23.0059 21.6666 21.4717 23.0734 19.7299 22.916L19.7119 22.9142C10.035 21.8627 2.14871 13.9205 1.12555 4.28562L1.12402 4.27002C1.01158 3.0258 1.60495 2.07913 2.46436 1.48984C3.2798 0.930701 4.33079 0.682478 5.32299 0.652243C6.32169 0.621811 7.3811 0.80799 8.25396 1.24317ZM23 19.918C23 19.9187 23 19.9193 23 19.92H22L23 19.916C23 19.9166 23 19.9173 23 19.918Z"/>
</svg>
