<svg width="24" height="24" viewBox="0 0 24 24" xmlns="http://www.w3.org/2000/svg">
<g clip-path="url(#clip0_1049_11679)">
<path fill-rule="evenodd" clip-rule="evenodd" d="M8.33799 4.77054C8.79179 4.59251 9.05886 4.1043 8.94596 3.61508C8.82178 3.07694 8.28485 2.74137 7.74671 2.86555L7.07814 3.01984C6.54035 3.14394 6.20479 3.68028 6.3284 4.21819C6.35927 4.35252 6.36313 4.49165 6.33975 4.62749C6.31637 4.76333 6.26623 4.89316 6.19223 5.00945C6.11823 5.12574 6.02185 5.22615 5.90869 5.30486C5.7961 5.38318 5.66913 5.43845 5.53511 5.4675C5.25599 5.52566 4.96517 5.47229 4.72487 5.31876C4.48397 5.16486 4.31308 4.92259 4.24891 4.64403C4.12703 4.11499 3.60531 3.77982 3.07348 3.88891L1.73634 4.1632L1.72411 4.16579C1.40868 4.23461 1.11047 4.36667 0.847513 4.55398C0.584553 4.74129 0.362294 4.97996 0.194166 5.25558C0.026038 5.5312 -0.0844695 5.83805 -0.13068 6.15757C-0.17559 6.46811 -0.158864 6.78436 -0.0815587 7.08828L0.0219555 7.56665C0.0911551 7.88582 0.190906 8.34489 0.31317 8.90473C0.557676 10.0243 0.892322 11.5474 1.25277 13.1608C1.37319 13.6998 1.90775 14.0392 2.44674 13.9187C2.98574 13.7983 3.32507 13.2638 3.20466 12.7248C2.84511 11.1154 2.51118 9.59557 2.26712 8.47801C2.14509 7.91928 2.04556 7.4612 1.97655 7.14288L1.86957 6.64845C1.86608 6.6321 1.86217 6.61578 1.85784 6.59953C1.84431 6.54878 1.84121 6.49582 1.84873 6.44384C1.85624 6.39186 1.87422 6.34194 1.90157 6.2971C1.92892 6.25226 1.96508 6.21344 2.00786 6.18296C2.04946 6.15333 2.09649 6.1322 2.14624 6.12076L2.67534 6.01223C2.91794 6.40879 3.24912 6.74926 3.64809 7.00416C4.3304 7.44008 5.15651 7.59091 5.94885 7.42424L5.95289 7.42338C6.34682 7.33881 6.72001 7.17679 7.05077 6.94671C7.38152 6.71664 7.66324 6.42312 7.87955 6.0832C8.09586 5.74329 8.24244 5.36376 8.31077 4.9667C8.32199 4.90154 8.33106 4.83611 8.33799 4.77054Z"/>
<path fill-rule="evenodd" clip-rule="evenodd" d="M13.7221 0.524568C14.3384 0.274857 15.0283 0.278271 15.6421 0.534069C15.6556 0.539685 15.669 0.545596 15.6822 0.551797L17.0708 1.20323C17.5701 1.4375 17.7855 2.03189 17.5521 2.53167C17.4798 2.68655 17.4397 2.8545 17.4341 3.02535C17.4286 3.1962 17.4579 3.36638 17.5201 3.5256C17.5823 3.68481 17.6762 3.82974 17.796 3.9516C17.9159 4.07346 18.0593 4.16972 18.2174 4.23454C18.3756 4.29937 18.5453 4.3314 18.7162 4.32872C18.8871 4.32603 19.0557 4.28867 19.2118 4.21891C19.3678 4.14914 19.5081 4.04842 19.6241 3.92285C19.74 3.79728 19.8293 3.64948 19.8865 3.48838C19.9781 3.23033 20.1714 3.02112 20.4215 2.90958C20.6716 2.79803 20.9564 2.7939 21.2096 2.89816L22.6668 3.49816C22.6883 3.50702 22.7095 3.51664 22.7304 3.52699C23.3002 3.80963 23.7424 4.29688 23.9687 4.89137C24.1949 5.48586 24.1885 6.14382 23.9507 6.73379L23.9435 6.75116L17.4292 22.0769L17.4276 22.0807C17.165 22.6916 16.672 23.1742 16.0557 23.424C15.4394 23.6737 14.7495 23.6703 14.1356 23.4145L14.1283 23.4114L7.16832 20.4457L7.16536 20.4444C6.55445 20.1818 6.07176 19.6888 5.82205 19.0725C5.57234 18.4562 5.57576 17.7663 5.83155 17.1524L5.83929 17.1344L6.59099 15.426L12.3502 1.86787C12.6128 1.25696 13.1058 0.774278 13.7221 0.524568ZM14.8577 2.37417C14.7338 2.32696 14.5964 2.32825 14.4731 2.3782C14.3454 2.42997 14.2431 2.52986 14.1882 2.65632C14.188 2.65681 14.1878 2.65731 14.1876 2.6578L8.42428 16.2256L7.67491 17.9285C7.62441 18.0546 7.62462 18.1954 7.67568 18.3214C7.72751 18.4493 7.82754 18.5517 7.95418 18.6065C7.95454 18.6067 7.95491 18.6068 7.95528 18.607L14.9077 21.5695C15.0347 21.6216 15.1772 21.6219 15.3046 21.5703C15.4324 21.5186 15.5348 21.4186 15.5896 21.2922C15.5898 21.2917 15.59 21.2912 15.5902 21.2907L22.0982 5.9797C22.1452 5.85858 22.1457 5.72425 22.0994 5.60267C22.0554 5.48701 21.9721 5.39085 21.8646 5.33074L21.2615 5.08245C21.2082 5.15034 21.1521 5.21619 21.0933 5.27984C20.7936 5.60427 20.4312 5.8645 20.028 6.04475C19.6248 6.225 19.1892 6.32152 18.7477 6.32847C18.3061 6.33541 17.8677 6.25264 17.459 6.08515C17.0503 5.91767 16.6799 5.66897 16.3702 5.35411C16.0605 5.03926 15.818 4.66481 15.6572 4.25344C15.4965 3.84208 15.421 3.40237 15.4352 2.96095C15.4385 2.85892 15.4465 2.75729 15.4593 2.65639L14.8577 2.37417Z"/>
</g>
<defs>
<clipPath id="clip0_1049_11679">
<rect width="24" height="24" fill="white"/>
</clipPath>
</defs>
</svg>
