<svg width="24" height="24" viewBox="0 0 24 24" xmlns="http://www.w3.org/2000/svg">
<path fill-rule="evenodd" clip-rule="evenodd" d="M5.50006 9.6875V4H13.2501V8.25C13.2501 8.80228 13.6978 9.25 14.2501 9.25H18.5001V20H5.50006V18.9375C5.50006 18.3852 5.05235 17.9375 4.50006 17.9375C3.94778 17.9375 3.50006 18.3852 3.50006 18.9375V20.25C3.50006 20.7141 3.68443 21.1592 4.01263 21.4874C4.34081 21.8156 4.78593 22 5.25006 22H18.7501C19.2142 22 19.6593 21.8156 19.9875 21.4874C20.3157 21.1592 20.5001 20.7141 20.5001 20.25V8.25C20.5001 7.98478 20.3947 7.73043 20.2072 7.54289L14.9572 2.29289C14.7696 2.10536 14.5153 2 14.2501 2H5.25006C4.78593 2 4.34081 2.18438 4.01262 2.51256C3.68444 2.84075 3.50006 3.28587 3.50006 3.75V9.6875C3.50006 10.2398 3.94778 10.6875 4.50006 10.6875C5.05235 10.6875 5.50006 10.2398 5.50006 9.6875ZM17.0858 7.25L15.2501 5.41421V7.25H17.0858ZM5.00006 13.25C4.44778 13.25 4.00006 13.6977 4.00006 14.25C4.00006 14.8023 4.44778 15.25 5.00006 15.25H8.58585L7.66795 16.1679C7.27743 16.5584 7.27743 17.1916 7.66795 17.5821C8.05848 17.9726 8.69164 17.9726 9.08217 17.5821L11.7072 14.9571C12.0977 14.5666 12.0977 13.9334 11.7072 13.5429L9.08217 10.9179C8.69164 10.5274 8.05848 10.5274 7.66795 10.9179C7.27743 11.3084 7.27743 11.9416 7.66795 12.3321L8.58585 13.25H5.00006Z"/>
</svg>
