<svg width="508" height="509" viewBox="0 0 508 509" fill="none" xmlns="http://www.w3.org/2000/svg">
<path opacity="0.1" d="M157.613 222.915C158.22 221.7 158.826 220.486 158.826 218.663L157.613 218.056L149.126 208.338L160.644 213.804C163.069 208.945 165.494 204.086 168.525 199.227L115.179 168.249L53.9522 97.1837C53.346 97.7911 52.7397 99.0059 52.1335 99.6133L107.298 163.39L36.9784 122.695C35.1598 125.732 33.9474 128.161 32.1288 131.198L118.816 181.005L29.704 136.665C28.4916 139.702 26.6729 142.739 25.4605 145.168L143.064 204.086L152.764 215.019L16.3674 167.642C15.7612 168.857 15.7613 169.464 15.1551 170.679L157.007 219.878L157.613 222.915ZM176.406 188.294L58.1956 92.3246C57.5894 92.932 56.9832 94.1468 56.377 94.7542L174.587 190.723C175.193 190.116 175.799 189.508 176.406 188.294ZM157.007 224.13L10.3054 184.042C9.69917 187.079 8.4868 190.116 7.8806 193.76L154.582 233.848C155.189 230.204 156.401 227.167 157.007 224.13ZM445.561 259.359H411.007L408.582 276.366L481.327 287.907L445.561 259.359ZM412.826 228.989L413.432 224.737L408.582 225.952L412.826 228.989ZM405.551 222.915L414.038 221.093L414.644 219.271L404.945 222.308L405.551 222.915ZM401.308 223.523L394.64 224.737L401.308 223.523ZM377.666 200.441L420.706 183.434L425.556 152.457L364.329 189.508L377.666 200.441ZM361.298 187.079L425.556 148.205L432.831 102.65L347.356 176.146L361.298 187.079ZM415.251 235.063L412.826 250.248H434.043L415.251 235.063ZM404.945 278.796L358.267 271.507L366.148 280.618L403.127 290.944L404.945 278.796ZM401.308 300.662L377.06 293.981L378.878 295.803L401.308 303.699V300.662ZM398.883 334.069L414.644 343.18H415.857L414.644 341.358L398.883 334.069ZM398.277 318.277L400.096 306.129L382.515 300.055L398.277 318.277ZM372.816 293.374L371.604 292.159L360.692 289.122L372.816 293.374ZM394.64 343.18L375.241 340.143L360.086 337.714L391.608 363.224L394.64 343.18ZM391.002 366.261L354.024 336.499L341.294 334.677L387.971 381.446L391.002 366.261ZM386.759 392.987L325.532 331.64L323.107 331.032L384.94 402.705L386.759 392.987ZM376.453 337.106L387.971 338.928L356.449 320.706L376.453 337.106ZM374.029 472.556L312.802 402.098L333.413 454.941L373.422 477.415L374.029 472.556ZM328.563 452.512L306.74 395.416L303.709 391.772L319.47 447.045L328.563 452.512ZM303.709 386.913L299.465 375.98L301.89 385.091L303.709 386.913ZM290.979 431.253L287.341 417.89L289.766 430.645L290.979 431.253ZM209.747 378.409L205.504 383.268L207.322 384.483L209.747 378.409ZM206.716 387.52L203.685 385.698L197.017 394.202V414.853L206.716 387.52ZM197.017 389.342L201.26 384.483L197.017 382.054V389.342ZM193.986 392.987V385.698L180.043 410.601L193.986 392.987ZM164.281 306.736L145.489 303.699L109.723 317.669L104.873 326.78L118.816 334.677L164.281 306.736ZM115.179 335.891L103.055 329.21L90.9308 350.469L115.179 335.891ZM96.3866 286.692L80.019 289.729L83.6563 290.337L96.3866 286.692ZM84.8687 314.025L83.05 314.632L84.2625 315.24L84.8687 314.025ZM76.3817 292.159L70.9259 291.551L49.7087 295.803L54.5585 298.84L76.3817 292.159ZM45.4654 293.374L62.4391 290.337L30.3103 285.477L45.4654 293.374ZM252.181 149.42L251.575 102.043L236.42 89.895L226.721 107.51L229.752 123.909L252.181 149.42ZM238.239 87.4654L252.181 98.3986L251.575 63.1695L238.239 87.4654ZM217.628 75.9248L217.021 74.1027L213.384 71.0657L215.809 78.9618L217.628 75.9248ZM199.442 107.51L190.955 77.747V86.2506L199.442 107.51ZM198.229 111.761L191.561 94.7542L192.167 123.302L198.229 111.761ZM187.924 77.1397V65.599L182.468 45.5549L173.375 38.2661L187.924 77.1397ZM508 259.359H450.41L486.783 288.514L504.969 291.551C504.969 292.766 504.363 293.373 504.363 294.588L491.026 292.766L503.15 302.485C503.15 303.699 502.544 304.914 502.544 306.129L485.57 292.159L407.976 280.011L406.158 292.159L500.725 317.669C500.119 320.706 498.907 323.743 498.301 326.78L404.945 301.27L404.339 304.307L495.27 335.891C494.663 337.106 494.664 337.714 494.057 338.928L403.733 307.344L401.308 321.314L404.945 325.566L450.41 348.039L487.389 354.113C486.783 355.328 486.783 355.936 486.177 357.15L459.504 352.899L482.539 364.439C481.327 367.476 479.508 370.513 478.296 372.943L427.375 347.432L423.737 346.825L424.95 348.039L475.871 377.802C474.053 380.839 472.84 383.268 471.021 386.305L444.348 371.12L465.566 395.416C464.959 396.024 464.353 397.239 463.747 397.846L436.468 366.261L397.671 343.788L394.64 364.439L453.442 412.423C452.835 413.031 452.229 414.246 451.623 414.853L394.033 368.083L391.608 383.268L438.286 429.431C435.862 431.86 434.043 434.29 431.618 436.112L389.79 394.809L387.971 405.135L421.919 444.616C421.313 445.223 420.1 445.83 419.494 446.438L386.759 408.779L378.272 461.623L384.334 471.949C383.728 472.556 382.516 473.163 381.909 473.163L377.666 466.482L377.06 470.734L380.091 474.378C379.484 474.986 378.272 475.593 377.666 476.2L376.453 474.986L375.847 477.415C374.635 478.023 372.816 478.63 371.604 479.845L334.625 459.193L346.749 491.385C345.537 491.993 344.931 491.993 343.718 492.6L329.776 456.764L320.076 451.297L332.807 496.245C325.532 498.674 318.258 500.496 310.377 502.319L291.585 435.505L289.766 434.29L303.103 504.141C301.89 504.141 301.284 504.748 300.072 504.748L286.129 432.468L257.637 416.675L258.85 509C257.637 509 257.031 509 255.819 509L254.606 414.853L231.57 402.098L214.597 506.57C213.384 506.57 212.778 505.963 211.566 505.963L228.539 400.883L207.928 389.342L195.804 423.964L197.017 502.926C195.804 502.926 195.198 502.319 193.986 502.319L193.379 432.468L171.556 495.637C170.344 495.03 169.737 495.03 168.525 494.422L193.379 423.357V397.846L170.95 425.786L140.033 481.667C133.365 478.023 126.091 474.378 120.029 470.126L175.8 369.906L166.706 365.046L95.7804 453.119C95.1742 452.512 93.9618 451.905 93.3556 451.297L164.281 363.832L144.277 352.291L63.6516 422.142C63.0454 421.534 62.439 420.32 61.8328 419.712L141.852 351.076L118.816 338.321L88.5058 356.543L56.377 413.638C50.9212 406.957 46.0715 400.276 41.2219 392.987L47.8902 380.839L36.9784 387.52C36.3722 386.913 35.766 385.698 35.1598 385.091L50.315 375.98L74.5632 332.247L19.3985 354.113C18.186 351.076 16.9736 348.039 15.7612 345.002L81.8377 318.884L78.2004 317.062L12.1241 335.891C9.69929 328.603 7.88067 321.314 6.06205 313.418L49.7087 300.662L44.2529 297.625L4.24333 305.522C4.24333 304.307 3.63708 303.699 3.63708 302.485L40.0094 295.196L21.2172 284.263L0.606057 281.226C0.606057 280.011 0.606057 279.403 0.606057 278.189L13.3364 280.011L0 272.722C0 271.507 0 270.292 0 269.078L22.4295 281.833L70.9259 289.729L102.449 283.655L115.179 261.181H0.606057C0.606057 259.359 0.606057 257.537 0.606057 256.322C0.606057 254.5 0.606057 253.285 0.606057 251.463H120.635L125.484 242.352L141.852 251.463H152.764C152.764 253.285 152.764 254.5 152.764 256.322C152.764 258.144 152.764 259.967 152.764 261.181H141.852L132.759 278.189L153.976 272.115C155.189 281.226 158.219 290.337 161.857 298.84L150.945 303.092L164.888 305.522C165.494 307.344 166.706 308.558 167.313 309.773L121.241 337.714L143.671 350.469L176.406 322.529C177.012 323.136 177.618 323.743 178.224 324.958L146.095 352.291L166.1 363.224L189.136 335.284C189.742 335.891 190.955 336.499 191.561 337.106L169.131 365.046L177.618 369.906L194.592 339.536C200.654 344.395 207.322 348.039 214.597 351.076L197.623 381.446L203.079 384.483L212.778 372.335L219.446 352.899C220.659 353.506 221.265 353.506 222.477 354.113L218.234 365.654L226.721 355.328C227.933 355.328 229.146 355.936 229.752 355.936L215.203 373.55L210.353 388.128L230.358 399.061L237.026 357.15C238.239 357.15 238.845 357.758 240.057 357.758L233.389 400.883L255.819 413.638L255.212 358.973C256.425 358.973 257.031 358.973 258.243 358.973L258.85 415.46L286.735 431.253L277.642 385.091L270.367 358.365C278.248 357.15 286.129 355.328 293.403 352.291L310.377 396.631L374.635 468.304L375.241 462.838L304.315 343.18C304.921 342.573 306.134 341.965 306.74 341.358L375.847 457.978L384.334 406.35L320.076 332.854C323.714 329.817 326.745 326.78 330.382 323.136L338.262 331.032L349.78 332.854L333.413 319.492C334.019 318.884 334.625 317.669 335.231 317.062L355.842 333.462L370.998 335.891L340.081 310.381C343.112 306.129 345.537 301.27 347.356 296.411L398.277 321.921L377.666 297.625L350.993 288.514C352.205 284.87 353.418 280.618 354.63 276.974L361.904 278.796L355.842 271.507C355.842 270.292 356.449 268.47 356.449 267.255L406.764 275.152L409.189 258.752H357.055C357.055 256.93 357.055 255.107 357.055 253.893C357.055 252.07 357.055 250.856 357.055 249.033H411.007L414.038 231.419L406.158 225.345L362.511 233.848L355.842 235.671C354.63 227.167 351.599 219.271 348.568 211.375L375.847 200.441L362.511 190.116L343.112 201.656C342.506 201.049 341.9 199.834 341.294 199.227L359.48 188.294L346.143 177.36L333.413 188.294C332.807 187.686 332.2 187.079 331.594 185.864L344.325 174.931L329.776 163.39L320.683 174.931C320.076 174.323 318.864 173.716 318.258 173.109L327.351 161.568L321.895 156.709L314.621 170.072C308.558 165.82 301.89 161.568 294.616 158.531L304.315 141.524L297.647 136.057L290.372 156.709C289.16 156.102 288.554 156.101 287.341 155.494L294.616 133.628L278.854 120.872L274.005 151.85C272.792 151.85 272.186 151.242 270.974 151.242L276.429 118.443L257.031 102.65L257.637 150.635C257.031 150.635 257.031 150.635 256.425 150.635C255.212 150.635 254 150.635 253.394 150.635L233.389 127.554L235.814 140.917L238.845 151.85C230.964 153.064 223.69 155.494 216.415 158.531L210.353 137.88L200.048 156.709L204.897 164.605C204.291 165.212 203.079 165.82 202.473 166.427L198.835 159.746L194.592 167.642V171.894C193.379 172.501 192.773 173.109 191.561 174.323V173.109L190.955 174.323L191.561 174.931C190.955 175.538 190.348 176.146 189.136 176.753L187.317 174.931L184.893 173.716L188.53 177.36C186.105 179.79 183.68 181.612 181.862 184.042L153.37 155.494L64.2576 85.6432C64.8638 85.0358 65.4701 83.8211 66.0763 83.2137L126.697 133.628L70.9259 77.747C73.3507 75.3174 75.7756 72.8879 77.5942 71.0657L168.525 162.175L169.737 159.746L86.081 63.1695C86.6872 62.5621 87.8996 61.9547 88.5058 61.3473L171.556 157.316L182.468 138.487L122.453 37.0513C123.06 36.4439 124.272 35.8365 124.878 35.2291L184.286 134.843L188.53 127.554L187.924 85.6432L168.525 34.6218L152.157 21.2589C153.37 20.6515 153.976 20.0442 155.188 20.0442L166.1 29.1551L161.857 17.6146C163.069 17.0072 163.675 17.0072 164.888 16.3998L170.95 32.7996L180.649 40.6958L172.769 13.3628C180.043 10.9332 187.317 8.50361 195.198 6.68142L211.566 65.599L215.809 69.2435L203.079 4.85921C204.291 4.85921 204.897 4.25186 206.11 4.25186L219.446 71.673L250.363 16.3998V0C251.575 0 252.181 0 253.394 0V11.5406L259.456 0.607435C267.943 0.607435 276.43 1.21485 284.917 2.42965L254 58.3103L254.606 100.828L274.611 117.228L292.797 3.03699C294.01 3.03699 294.616 3.64443 295.828 3.64443L277.036 119.05L293.403 132.413L334.625 13.3628C335.838 13.9702 336.444 13.9702 337.656 14.5776L296.434 134.843L303.709 140.309L367.36 26.7256C374.029 30.37 381.303 34.0143 387.365 38.2661L321.895 155.494L327.957 160.353L412.22 55.8807C412.826 56.4881 414.038 57.0955 414.644 57.7028L330.382 162.175L344.931 174.323L433.437 97.7912L436.468 78.3545C437.074 79.5692 438.286 80.1766 438.893 81.3914L436.468 95.3616L444.955 88.0728C445.561 88.6802 446.167 89.895 446.773 90.5024L435.862 100.221L429.193 146.383L470.415 121.48C471.021 122.087 471.628 123.302 472.234 123.909L428.587 150.027L423.737 181.612L488.601 155.494C489.814 158.531 491.026 161.568 492.239 164.605L421.919 192.545L494.663 171.894C497.088 179.183 499.513 186.471 501.332 194.367L418.282 218.056L417.675 220.486L503.15 203.478C503.15 204.693 503.756 205.301 503.756 206.515L417.069 223.523L415.857 230.811L438.893 249.641H508C508 251.463 508 252.678 508 254.5C508 256.322 508 258.144 508 259.359ZM153.976 238.708L3.63708 214.412C3.63708 213.197 4.24333 212.59 4.24333 211.375L154.582 235.671C153.976 236.885 153.976 238.1 153.976 238.708Z" fill="#003E66"/>
</svg>
