<svg width="65" height="64" viewBox="0 0 65 64" fill="none" xmlns="http://www.w3.org/2000/svg">
<path d="M27.9401 10.2929L5.35339 47.9996C4.8877 48.806 4.6413 49.7204 4.63869 50.6516C4.63609 51.5829 4.87736 52.4986 5.33853 53.3076C5.79969 54.1167 6.46466 54.7909 7.26728 55.2632C8.0699 55.7354 8.98219 55.9893 9.91339 55.9996H55.0867C56.0179 55.9893 56.9302 55.7354 57.7328 55.2632C58.5355 54.7909 59.2004 54.1167 59.6616 53.3076C60.1227 52.4986 60.364 51.5829 60.3614 50.6516C60.3588 49.7204 60.1124 48.806 59.6467 47.9996L37.0601 10.2929C36.5847 9.50919 35.9153 8.86122 35.1166 8.41153C34.3178 7.96183 33.4167 7.72559 32.5001 7.72559C31.5834 7.72559 30.6823 7.96183 29.8835 8.41153C29.0848 8.86122 28.4154 9.50919 27.9401 10.2929V10.2929Z" stroke="#F2994A" stroke-width="3" stroke-linecap="round" stroke-linejoin="round"/>
<path d="M32.5 24V34.6667" stroke="#F2994A" stroke-width="3" stroke-linecap="round" stroke-linejoin="round"/>
<path d="M32.5 45.333H32.5267" stroke="#F2994A" stroke-width="3" stroke-linecap="round" stroke-linejoin="round"/>
</svg>
