<svg width="307" height="44" viewBox="0 0 307 44" fill="none" xmlns="http://www.w3.org/2000/svg">
<g clip-path="url(#clip0_812_5485)">
<path d="M75.1462 12.3662C74.3275 11.8534 73.4241 11.4905 72.4781 11.2947C71.453 11.078 70.4078 10.9702 69.36 10.9732H62.2129V34.7825H65.5025V24.3351H69.885C70.7618 24.3279 71.635 24.2237 72.4888 24.0244C73.3988 23.8206 74.2658 23.4578 75.0498 22.9529C75.8459 22.4435 76.5104 21.7532 76.9892 20.9384C77.527 19.9276 77.7894 18.7931 77.75 17.6488C77.789 16.5336 77.5419 15.4269 77.0321 14.4342C76.5924 13.5937 75.9427 12.8813 75.1462 12.3662V12.3662ZM74.2676 17.6274C74.3107 18.1394 74.2244 18.6541 74.0165 19.1241C73.8087 19.5941 73.486 20.0043 73.0782 20.3169C72.1286 20.9478 71.0024 21.2594 69.8636 21.2063H65.5025V14.0806H69.885C71.0227 14.0243 72.1487 14.3321 73.0996 14.9593C73.5035 15.2743 73.8221 15.6855 74.0261 16.1553C74.2301 16.6251 74.3132 17.1386 74.2676 17.6488V17.6274Z" fill="white"/>
<path d="M95.8161 22.01C96.8923 20.8475 97.4661 19.3072 97.4127 17.7239C97.4742 16.4722 97.1728 15.2294 96.5448 14.145C96.003 13.2533 95.2239 12.5299 94.2946 12.0555C93.3364 11.5947 92.3078 11.2977 91.2514 11.1769C90.1282 11.0376 88.9972 10.9696 87.8654 10.9733H81.7148V34.7826H85.0044V24.3352H88.1119L94.2946 34.654L94.3696 34.7826H98.3664L91.7872 23.9816C93.3058 23.7701 94.7173 23.0794 95.8161 22.01V22.01ZM93.9195 17.7239C93.9672 18.4555 93.7547 19.1805 93.3195 19.7705C92.8979 20.265 92.3497 20.6355 91.7336 20.842C91.0212 21.0829 90.2778 21.22 89.5263 21.2492C88.6905 21.2492 87.9083 21.3135 87.1903 21.3135H85.0473V14.0807H88.6369C89.2994 14.0823 89.9612 14.1216 90.6192 14.1986C91.2115 14.2754 91.7871 14.4492 92.323 14.7129C92.8134 14.9537 93.2284 15.3243 93.5231 15.7844C93.8282 16.3562 93.9657 17.0025 93.9195 17.6489V17.7239Z" fill="white"/>
<path d="M122.154 13.9307C121.039 12.8098 119.718 11.9148 118.264 11.2947C115.073 10.0378 111.523 10.0378 108.331 11.2947C106.87 11.8996 105.547 12.7945 104.442 13.9253C103.337 15.0562 102.473 16.3995 101.902 17.8739C101.27 19.4619 100.953 21.158 100.97 22.8672C100.956 24.5692 101.273 26.2577 101.902 27.8391C102.488 29.318 103.362 30.6657 104.474 31.8037C105.591 32.924 106.92 33.8093 108.385 34.4075C111.574 35.6795 115.129 35.6795 118.318 34.4075C119.751 33.8019 121.054 32.925 122.154 31.8251C123.272 30.6904 124.151 29.3421 124.736 27.8605C125.965 24.6524 125.965 21.1034 124.736 17.8953C124.151 16.4137 123.272 15.0654 122.154 13.9307V13.9307ZM122.154 22.8886C122.164 24.1365 121.942 25.3754 121.5 26.5425C121.095 27.635 120.488 28.6418 119.711 29.5106C118.922 30.3632 117.966 31.0452 116.903 31.5144C115.232 32.2617 113.37 32.4703 111.574 32.1113C109.779 31.7522 108.14 30.8433 106.885 29.5106C106.074 28.6517 105.437 27.6438 105.01 26.5425C104.138 24.1772 104.138 21.5786 105.01 19.2133C105.422 18.1078 106.044 17.0927 106.842 16.2237C107.665 15.3425 108.66 14.6399 109.766 14.1595C110.872 13.6791 112.065 13.4313 113.271 13.4313C114.477 13.4313 115.67 13.6791 116.776 14.1595C117.882 14.6399 118.877 15.3425 119.7 16.2237C120.495 17.0954 121.116 18.1098 121.532 19.2133C121.965 20.3894 122.176 21.6356 122.154 22.8886V22.8886Z" fill="white"/>
<path d="M127.447 14.0806H135.098V34.7824H138.388V14.0806H146.028V10.9731H127.447V14.0806Z" fill="white"/>
<path d="M152.639 23.9279H163.654V20.8205H152.639V14.0806H164.437V10.9731H149.339V34.7717H165.037V31.6643H152.639V23.9279Z" fill="white"/>
<path d="M186.446 29.114C185.693 30.0921 184.734 30.8931 183.638 31.4607C182.487 32.0168 181.221 32.2957 179.942 32.275C178.744 32.2904 177.558 32.0378 176.47 31.5357C175.45 31.0478 174.539 30.359 173.791 29.5105C173.018 28.6386 172.418 27.6277 172.023 26.5317C171.597 25.3499 171.383 24.102 171.391 22.8456C171.387 21.6246 171.601 20.4127 172.023 19.2667C172.425 18.1593 173.032 17.1378 173.812 16.2557C174.568 15.3944 175.49 14.6946 176.523 14.1984C177.593 13.6853 178.766 13.425 179.952 13.4376C181.026 13.4348 182.087 13.669 183.06 14.1234C184.048 14.5753 184.903 15.2724 185.546 16.1486L185.696 16.3629L188.525 14.2948L188.353 14.0805C187.371 12.8327 186.072 11.8708 184.592 11.2946C183.114 10.7132 181.54 10.4151 179.952 10.4159C178.286 10.3985 176.636 10.7345 175.109 11.4017C173.669 12.0292 172.369 12.9383 171.285 14.0755C170.201 15.2127 169.355 16.5551 168.798 18.0238C168.198 19.5899 167.896 21.2543 167.908 22.9313C167.891 24.6361 168.204 26.3281 168.83 27.9139C169.417 29.3784 170.279 30.717 171.369 31.8572C172.451 32.9773 173.749 33.8667 175.184 34.4717C176.691 35.114 178.314 35.4386 179.952 35.4253C181.709 35.452 183.451 35.105 185.063 34.4074C186.615 33.6881 187.955 32.581 188.953 31.1928L189.103 30.9892L186.628 28.9105L186.446 29.114Z" fill="white"/>
<path d="M214.895 17.8953C214.305 16.4133 213.423 15.065 212.302 13.9307C211.186 12.8055 209.861 11.91 208.401 11.2947C205.206 10.0372 201.653 10.0372 198.458 11.2947C196.996 11.9034 195.668 12.7915 194.546 13.9092C193.435 15.0473 192.561 16.395 191.975 17.8739C191.351 19.4641 191.038 21.1591 191.053 22.8672C191.039 24.5682 191.352 26.2561 191.975 27.8391C192.561 29.318 193.435 30.6657 194.546 31.8037C195.663 32.924 196.993 33.8093 198.458 34.4075C201.65 35.6791 205.209 35.6791 208.401 34.4075C209.87 33.8063 211.202 32.9145 212.318 31.7858C213.434 30.6571 214.31 29.3147 214.895 27.8391C216.124 24.631 216.124 21.082 214.895 17.8739V17.8953ZM212.334 22.8886C212.34 24.1372 212.115 25.3761 211.669 26.5425C211.255 27.6404 210.633 28.6481 209.837 29.5107C209.052 30.3679 208.096 31.0506 207.03 31.5144C205.892 32.002 204.667 32.2534 203.429 32.2534C202.192 32.2534 200.967 32.002 199.829 31.5144C198.767 31.0388 197.809 30.3578 197.011 29.5107C196.216 28.6413 195.598 27.626 195.189 26.5211C194.318 24.1558 194.318 21.5572 195.189 19.1919C195.598 18.0869 196.216 17.0717 197.011 16.2023C197.833 15.3228 198.829 14.6245 199.936 14.1522C201.043 13.6798 202.237 13.4438 203.44 13.4592C204.676 13.444 205.9 13.6962 207.03 14.1986C208.094 14.6651 209.05 15.3474 209.837 16.2023C210.635 17.0712 211.257 18.0864 211.669 19.1919C212.119 20.3719 212.345 21.6257 212.334 22.8886V22.8886Z" fill="white"/>
<path d="M239.047 19.3953C238.337 19.015 237.744 18.4482 237.332 17.7559C236.92 17.0353 236.71 16.2176 236.721 15.3878C236.707 14.5563 236.922 13.7369 237.343 13.0197C237.755 12.3274 238.347 11.7606 239.057 11.3803C239.803 10.9755 240.641 10.7689 241.49 10.7802C242.177 10.7713 242.859 10.9026 243.493 11.166C244.077 11.4009 244.597 11.7677 245.015 12.2375L243.944 13.2447C243.645 12.9052 243.278 12.6338 242.865 12.4489C242.453 12.264 242.006 12.17 241.554 12.1732C240.982 12.1654 240.417 12.3057 239.915 12.5804C239.448 12.8306 239.056 13.2004 238.779 13.6519C238.504 14.1503 238.364 14.7116 238.372 15.2806C238.363 15.8464 238.503 16.4045 238.779 16.8986C239.054 17.3518 239.446 17.7221 239.915 17.9702C240.418 18.2416 240.982 18.3782 241.554 18.3666C242.006 18.3713 242.454 18.2779 242.866 18.0929C243.279 17.9079 243.646 17.6357 243.944 17.2951L245.015 18.3666C244.596 18.8393 244.071 19.2064 243.483 19.4382C242.848 19.7015 242.166 19.8328 241.479 19.8239C240.645 19.8884 239.808 19.7409 239.047 19.3953V19.3953Z" fill="white"/>
<path d="M248.423 19.3952C247.704 19.0087 247.107 18.4299 246.698 17.7237C246.29 17.0048 246.076 16.1926 246.076 15.3663C246.076 14.54 246.29 13.7277 246.698 13.0089C247.11 12.3105 247.707 11.7395 248.423 11.3588C249.177 10.954 250.021 10.7475 250.876 10.7587C251.735 10.7485 252.583 10.9549 253.341 11.3588C254.051 11.7391 254.644 12.3059 255.055 12.9982C255.476 13.7154 255.691 14.5348 255.677 15.3663C255.679 16.1971 255.453 17.0124 255.023 17.7237C254.612 18.416 254.019 18.9828 253.309 19.3631C252.551 19.767 251.703 19.9734 250.844 19.9631C250.002 19.9788 249.17 19.7836 248.423 19.3952V19.3952ZM252.484 18.1308C252.947 17.8791 253.335 17.5094 253.609 17.0593C253.872 16.5646 254.01 16.0126 254.01 15.452C254.01 14.8914 253.872 14.3395 253.609 13.8447C253.342 13.3749 252.954 12.9861 252.484 12.7196C251.993 12.4457 251.439 12.3053 250.876 12.3124C250.314 12.3053 249.76 12.4457 249.269 12.7196C248.816 12.9895 248.445 13.3787 248.198 13.8447C247.934 14.3395 247.796 14.8914 247.796 15.452C247.796 16.0126 247.934 16.5646 248.198 17.0593C248.453 17.5057 248.823 17.8756 249.269 18.1308C249.761 18.401 250.315 18.5377 250.876 18.5273C251.438 18.5377 251.992 18.401 252.484 18.1308V18.1308Z" fill="white"/>
<path d="M265.738 19.8669V13.9306L262.834 18.7954H262.095L259.17 13.9628V19.8669H257.595V10.9089H258.956L262.492 16.8452L265.974 10.9089H267.335V19.8669H265.738Z" fill="white"/>
<path d="M275.585 11.2946C276.119 11.5163 276.577 11.8886 276.903 12.3661C277.217 12.8743 277.377 13.4622 277.364 14.0591C277.372 14.6589 277.213 15.2491 276.903 15.7629C276.574 16.2375 276.117 16.6091 275.585 16.8344C274.944 17.1 274.254 17.2278 273.56 17.2094H271.556V19.8668H269.896V10.9089H273.56C274.255 10.8939 274.945 11.0253 275.585 11.2946ZM275.135 15.4093C275.323 15.247 275.471 15.0438 275.567 14.8152C275.664 14.5867 275.707 14.339 275.692 14.0913C275.705 13.8438 275.662 13.5966 275.565 13.3683C275.469 13.14 275.322 12.9366 275.135 12.7733C274.653 12.4372 274.071 12.2748 273.485 12.3126H271.556V15.87H273.485C274.072 15.9131 274.656 15.7502 275.135 15.4093V15.4093Z" fill="white"/>
<path d="M284.672 17.7881H280.215L279.336 19.8669H277.622L281.64 10.9089H283.268L287.297 19.8669H285.562L284.672 17.7881ZM284.126 16.4916L282.443 12.5698L280.74 16.4916H284.126Z" fill="white"/>
<path d="M296.706 10.9089V19.8669H295.345L290.384 13.8021V19.8669H288.744V10.9089H290.105L295.023 16.9738V10.9089H296.706Z" fill="white"/>
<path d="M303.242 16.7059V19.8669H301.635V16.7273L298.131 10.9089H299.899L302.513 15.27L305.149 10.9089H306.778L303.242 16.7059Z" fill="white"/>
<path d="M243.44 30.5822H245.004V34.1504C244.532 34.5342 243.99 34.8218 243.408 34.9969C242.798 35.1928 242.162 35.294 241.522 35.2969C240.663 35.3081 239.815 35.1016 239.057 34.6968C238.347 34.3166 237.754 33.7497 237.343 33.0574C236.935 32.3347 236.721 31.519 236.721 30.6893C236.721 29.8596 236.935 29.044 237.343 28.3213C237.756 27.6261 238.353 27.0587 239.068 26.6818C239.829 26.2766 240.681 26.0702 241.543 26.0818C242.24 26.0732 242.931 26.2006 243.579 26.4568C244.17 26.6888 244.698 27.0558 245.122 27.5283L244.051 28.5998C243.736 28.261 243.354 27.9909 242.93 27.8065C242.506 27.6221 242.048 27.5274 241.586 27.5283C241.005 27.5211 240.431 27.6572 239.914 27.9248C239.442 28.1713 239.046 28.5417 238.768 28.9963C238.485 29.4957 238.34 30.0618 238.35 30.6357C238.34 31.1996 238.485 31.7553 238.768 32.243C239.036 32.7188 239.434 33.1089 239.914 33.3681C240.421 33.6526 240.994 33.7969 241.575 33.786C242.216 33.7968 242.848 33.6378 243.408 33.3253L243.44 30.5822Z" fill="white"/>
<path d="M253.18 35.2111L251.359 32.5858H249.001V35.2004H247.34V26.296H251.016C251.707 26.2799 252.394 26.4115 253.03 26.6817C253.567 26.8978 254.027 27.2714 254.348 27.7533C254.66 28.2728 254.824 28.8672 254.824 29.4731C254.824 30.0789 254.66 30.6733 254.348 31.1929C254.004 31.6881 253.513 32.0629 252.944 32.2644L254.991 35.2111H253.18ZM252.58 28.1283C252.104 27.7882 251.524 27.6252 250.941 27.6675H249.001V31.2357H250.941C251.525 31.2741 252.105 31.1074 252.58 30.7643C252.769 30.6009 252.918 30.3959 253.015 30.1653C253.111 29.9348 253.153 29.685 253.137 29.4356C253.153 29.1892 253.111 28.9426 253.014 28.7155C252.918 28.4884 252.769 28.2873 252.58 28.1283V28.1283Z" fill="white"/>
<path d="M258.548 34.7397C257.836 34.3583 257.242 33.7872 256.834 33.0895C256.42 32.3728 256.202 31.5598 256.202 30.7322C256.202 29.9046 256.42 29.0915 256.834 28.3748C257.242 27.6772 257.836 27.1061 258.548 26.7247C259.308 26.3319 260.152 26.127 261.007 26.127C261.863 26.127 262.706 26.3319 263.467 26.7247C264.179 27.1018 264.772 27.6694 265.181 28.3641C265.596 29.0844 265.814 29.901 265.814 30.7322C265.814 31.5633 265.596 32.3799 265.181 33.1002C264.772 33.795 264.179 34.3626 263.467 34.7397C262.706 35.1324 261.863 35.3374 261.007 35.3374C260.152 35.3374 259.308 35.1324 258.548 34.7397V34.7397ZM262.609 33.4753C263.062 33.2041 263.432 32.8153 263.681 32.3502C263.944 31.8554 264.082 31.3035 264.082 30.7429C264.082 30.1823 263.944 29.6303 263.681 29.1356C263.432 28.6705 263.062 28.2817 262.609 28.0105C262.116 27.7413 261.564 27.6003 261.002 27.6003C260.44 27.6003 259.888 27.7413 259.395 28.0105C258.914 28.2633 258.513 28.6456 258.237 29.1142C257.974 29.6089 257.836 30.1609 257.836 30.7215C257.836 31.282 257.974 31.834 258.237 32.3287C258.501 32.8009 258.89 33.1904 259.363 33.4538C259.856 33.723 260.408 33.8641 260.97 33.8641C261.532 33.8641 262.084 33.723 262.577 33.4538L262.609 33.4753Z" fill="white"/>
<path d="M268.471 34.2895C268.101 33.8907 267.815 33.4213 267.631 32.9094C267.447 32.3975 267.368 31.8537 267.399 31.3106V26.2959H269.049V31.2892C269.049 33.0465 269.81 33.9252 271.321 33.9252C272.832 33.9252 273.571 33.0465 273.571 31.2892V26.2959H275.2V31.3535C275.229 31.8964 275.149 32.4395 274.965 32.951C274.781 33.4625 274.496 33.9322 274.128 34.3323C273.323 35.0102 272.304 35.3818 271.251 35.3818C270.199 35.3818 269.18 35.0102 268.374 34.3323L268.471 34.2895Z" fill="white"/>
<path d="M283.375 26.6389C283.913 26.855 284.372 27.2285 284.693 27.7104C285.012 28.2165 285.172 28.8059 285.154 29.4034C285.17 30.0042 285.01 30.5965 284.693 31.1072C284.372 31.5891 283.913 31.9626 283.375 32.1787C282.739 32.449 282.052 32.5805 281.361 32.5644H279.346V35.1468H277.686V26.296H281.361C282.049 26.2664 282.736 26.3833 283.375 26.6389V26.6389ZM282.882 30.7535C283.059 30.5836 283.2 30.3797 283.296 30.1542C283.392 29.9286 283.441 29.686 283.441 29.4409C283.441 29.1958 283.392 28.9532 283.296 28.7277C283.2 28.5021 283.059 28.2983 282.882 28.1283C282.406 27.7882 281.827 27.6252 281.243 27.6676H279.346V31.2143H281.286C281.855 31.2467 282.418 31.0841 282.882 30.7535V30.7535Z" fill="white"/>
<path d="M225.449 8.4873H227.12V37.2578H225.449V8.4873Z" fill="white"/>
<path d="M12.9869 20.7562L0.257166 18.731C0.257166 18.6453 0.257166 18.5595 0.257166 18.4738L12.9762 20.5097C12.9737 20.592 12.9773 20.6744 12.9869 20.7562V20.7562ZM42.9896 22.5135H38.1356L41.2109 24.9994L42.7753 25.2459V25.503L41.7038 25.3316L42.711 26.1352C42.711 26.2317 42.711 26.3281 42.6574 26.4245L41.1037 25.2244L34.5246 24.1529L34.3531 25.1709L42.3467 27.3139C42.2824 27.5818 42.2074 27.8497 42.1217 28.1068L34.2245 25.9638V26.2317L41.9181 28.8998C41.8943 28.9835 41.8657 29.0658 41.8324 29.1462L34.1817 26.4888L33.9888 27.6782L34.321 28.0533L38.1785 29.982L41.318 30.4749C41.318 30.5606 41.243 30.6464 41.2109 30.7214L38.95 30.3678L40.9323 31.3428C40.8037 31.6 40.6751 31.8357 40.5465 32.0822L36.2604 29.9391L35.939 29.8856L36.0354 29.9927L40.3215 32.5001C40.1822 32.7358 40.0536 32.9823 39.9036 33.218L37.6106 31.9643L39.3893 34.0109C39.3893 34.086 39.2928 34.161 39.2393 34.236L36.9248 31.5679L33.6352 29.6713L33.3566 31.4179L38.3392 35.4468L38.1785 35.6504L33.3137 31.7072L33.0994 33.0144L37.0426 36.9469L36.4533 37.5255L32.9387 34.0217L32.7994 34.8896L35.6925 38.2328L35.4996 38.4042L32.7458 35.1896L32.0279 39.6472L32.5422 40.5044L32.3172 40.633L31.9636 40.0436V40.3972L32.2422 40.708L32.0065 40.8366L31.91 40.7294V40.9223L31.5457 41.1044L28.4061 39.3471L29.4777 42.0688L29.2312 42.1545L27.9668 39.1543L27.1417 38.6828L28.2133 42.4867C27.5918 42.6796 26.9596 42.8617 26.3167 43.001L24.7201 37.3327L24.5701 37.247L25.7166 43.1725H25.4595L24.2701 37.1184L21.8591 35.7682L21.9556 43.5797H21.6877L21.602 35.6182L19.6518 34.5467L18.2159 43.3439H17.9588L19.3946 34.4503L17.6695 33.4859L16.5979 36.4219L16.6837 43.1082L16.4158 43.0439L16.3515 37.1398L14.5085 42.4974L14.337 42.3688L16.4158 36.3362V34.1931L14.487 36.5719L11.7868 41.2973C11.1974 40.9973 10.6295 40.6758 10.0723 40.3329L14.8192 31.8572L14.0477 31.4286L8.05787 38.865L7.85428 38.7042L13.8655 31.2893L12.1511 30.3249L5.35763 36.2183L5.18618 36.0254L11.9689 30.1963L10.0402 29.1248L7.46853 30.6678L4.71471 35.5004C4.2861 34.9432 3.83606 34.3538 3.4396 33.7966L4.02894 32.7251L3.12886 33.2716C3.12886 33.1966 3.04313 33.1216 2.98956 33.0466L4.2861 32.2536L6.34343 28.5676L1.6823 30.4213C1.57514 30.1749 1.46799 29.9177 1.37155 29.6498L6.97563 27.4318L6.67561 27.2603L1.07153 28.8569C0.867936 28.2354 0.696492 27.6139 0.546478 26.971L4.24324 25.8995L3.77177 25.6316L0.417895 26.296C0.412747 26.2103 0.412747 26.1244 0.417895 26.0388L3.49317 25.4387L1.87517 24.5387L0.107153 24.2708C0.107153 24.1851 0.107153 24.0993 0.107153 24.0136L1.17868 24.1851L0.107153 23.5529C0.112463 23.4493 0.112463 23.3456 0.107153 23.2421L1.99304 24.3136L6.07555 24.9673L8.73293 24.4422L9.80446 22.5242H0C0 22.3742 0 22.2349 0 22.0956C0 21.9563 0 21.8277 0 21.6991H10.1795L10.6081 20.9276L11.9797 21.6991H12.8583V22.0956C12.8583 22.0956 12.8583 22.3742 12.8583 22.5242H11.9368L11.1439 23.9386L12.944 23.4243C13.0628 24.1988 13.2901 24.9526 13.6191 25.6638L12.6869 26.0388L13.887 26.2317L14.1227 26.6067L10.2438 28.9641L12.119 30.0356L14.8942 27.6461L15.0657 27.839L12.3654 30.1535L14.0263 31.0857L15.9657 28.6962L16.1693 28.8569L14.262 31.2143L15.0014 31.6536L16.4372 29.0819C16.9648 29.4728 17.5367 29.8 18.1409 30.057L16.7051 32.6072L17.1658 32.8644L17.9802 31.8679L18.5481 30.207L18.7946 30.3035L18.4517 31.2786L19.1589 30.4106L19.4375 30.4749L18.2159 31.9643L17.798 33.1859L19.4803 34.1181L20.0268 30.5821H20.284L19.6946 34.2252L21.5912 35.2968V30.6892H21.8591V35.4575L24.2058 36.7755L23.445 32.8644L22.8021 30.5821C23.4663 30.4806 24.1169 30.3045 24.7415 30.057L26.1881 33.7966L31.685 40.2258L31.76 39.7865L25.7166 29.5963L25.9309 29.457L31.7922 39.3364L32.4887 34.9646L27.0346 28.6747C27.3351 28.4154 27.6179 28.1361 27.8811 27.839L28.5669 28.5247L29.5312 28.6747L28.1383 27.6032C28.1977 27.5402 28.2514 27.472 28.299 27.3996L30.0349 28.814L31.3207 29.0176L28.674 26.8746C28.9216 26.5083 29.1367 26.1211 29.3169 25.7173L33.603 27.8604L31.835 25.8245L29.5527 25.0316C29.6598 24.7101 29.7563 24.3779 29.8313 24.0458L30.4313 24.2065L30.0027 23.5743C30.0027 23.4564 30.0027 23.3385 30.0563 23.2207L34.3424 23.8957L34.5674 22.5135H30.1099C30.1099 22.3635 30.1099 22.2242 30.1099 22.0849C30.1099 21.9456 30.1099 21.817 30.1099 21.6884H34.6639L34.8996 20.2204L34.2888 19.6954L30.5813 20.4133L30.0349 20.574C29.9089 19.8685 29.6966 19.1811 29.4027 18.5274L31.7064 17.6059L30.6349 16.7058L28.9312 17.7238C28.8786 17.6565 28.832 17.5848 28.7919 17.5094L30.3456 16.5665L29.2741 15.6664L28.2026 16.5987L28.0311 16.4165L29.1026 15.5057L27.8597 14.5092L27.0667 15.4736L26.7881 15.2914L27.5811 14.327L27.0989 13.9306L26.4667 15.0021C25.9357 14.6163 25.3601 14.2961 24.7522 14.0484L25.5452 12.6233L24.988 12.1625L24.3772 13.9091L24.1415 13.8234L24.7737 11.9911L23.4128 10.9196L22.9842 13.5662H22.7378L23.1878 10.7696L21.5591 9.41943V13.4591H21.4627H21.1841L19.5125 11.5303L19.7268 12.6019L19.9947 13.5341C19.3459 13.6377 18.7125 13.8213 18.1088 14.0806L17.648 12.3661L16.7694 13.952L17.1658 14.627L16.9515 14.7663L16.6194 14.2092L16.255 14.8735V15.2485L15.9979 15.4414V15.3235L15.9336 15.4414L15.7407 15.6128L15.6121 15.4628L15.3764 15.3343L15.6979 15.6557C15.4944 15.8377 15.3012 16.0309 15.1192 16.2343L12.7297 13.8663L5.42192 7.81214L5.59336 7.61927L10.7367 11.9054L6.01126 7.16923L6.6006 6.5906L14.3263 14.2949L14.4335 14.1127L7.32924 5.93697L7.50068 5.75481L14.5406 13.8663L15.4407 12.259L10.3509 3.68677L10.576 3.55819L15.5907 12.0125L15.9336 11.391V7.84429L14.262 3.55819L12.8583 2.39022L13.1155 2.27236L14.0477 3.02242L13.6727 2.04734L13.9298 1.9509L14.4549 3.34388L15.2907 4.01894L14.637 1.70445C15.2585 1.50086 15.88 1.3187 16.5229 1.16868L17.9373 6.16199L18.3017 6.45131L17.2408 1.00796L17.4873 0.95438L18.5588 6.64418L21.1626 1.98304V0.579346H21.4305V1.533L21.9877 0.579346C22.7044 0.595936 23.4197 0.649584 24.1308 0.740075L21.4841 5.45479V9.07654L23.1985 10.4588L24.7522 0.815081H24.9987L23.4986 10.6517L24.8915 11.7875L28.374 1.70445L28.6205 1.79017L25.1058 11.9589L25.7059 12.4518L31.0635 2.80812C31.6529 3.09743 32.2208 3.41889 32.778 3.76178L27.2275 13.6841L27.7525 14.102L34.9317 5.29406L35.1353 5.44407L27.9775 14.2842L29.2312 15.3557L36.7319 8.92653L36.9998 7.26567L37.2248 7.5014L37.0319 8.66936L37.7284 8.06931L37.8999 8.26218L36.9676 9.06583L36.3354 13.0198L39.8286 10.8767L39.9572 11.1017L36.2819 13.3198L35.8532 15.9986L41.3395 13.8555C41.4466 14.1127 41.5431 14.3699 41.6395 14.627L35.6925 16.9844L41.8538 15.2164C42.0684 15.8352 42.2508 16.4646 42.4003 17.1023L35.3603 19.0417V19.2239L42.6253 17.7988V18.0559L35.2746 19.4918L35.1782 20.1133L37.1176 21.6884H43.0003V22.0849C43.0003 22.0849 43.0003 22.3635 43.0003 22.5135H42.9896ZM15.9014 7.09422V6.14056L15.4193 4.44755L14.6478 3.79392L15.9014 7.09422ZM16.7372 9.98734L16.18 8.53007V10.9303L16.7372 9.98734ZM16.8765 9.63374L16.1586 7.09422V7.79071L16.8765 9.63374ZM18.4088 7.0085V6.85849L18.0874 6.60132L18.2802 7.2871L18.4088 7.0085ZM20.134 7.94073L21.2912 8.88367V5.92626L20.134 7.94073ZM21.3448 13.2126L21.2912 9.21584L20.0054 8.14432L19.1803 9.63374L19.4589 11.0267L21.3448 13.2126ZM3.83606 25.3744L5.27191 25.0958L2.57166 24.6672L3.83606 25.3744ZM6.42915 25.2887L6.01126 25.2244L4.18967 25.578L4.60756 25.8245L6.42915 25.2887ZM7.13636 27.121H7.00778H7.0935H7.13636ZM8.1436 24.7958L6.7399 25.0744H7.02921L8.1436 24.7958ZM9.72945 28.9641L8.65793 28.3854L7.63998 30.207L9.72945 28.9641ZM13.9298 26.4674L12.3225 26.2102L9.23655 27.4211L8.81866 28.1604L9.9759 28.814L13.9298 26.4674ZM16.3836 33.7966V33.1537L15.2157 35.2968L16.3836 33.7966ZM16.6408 33.4752L16.9944 33.0466L16.6301 32.8537L16.6408 33.4752ZM17.4659 33.3145L17.2194 33.1752L16.6515 33.8824V35.6075L17.4659 33.3145ZM17.723 32.5537L17.3801 32.9716L17.5516 33.068L17.723 32.5537ZM24.6451 37.0112L24.3236 35.8647L24.5379 36.9362L24.6451 37.0112ZM25.7166 33.2502L25.363 32.3286L25.5773 33.0894L25.7166 33.2502ZM27.8597 38.8114L25.9952 33.9574L25.7166 33.6788L27.0346 38.3721L27.8597 38.8114ZM31.6636 40.5044L26.4881 34.536L28.2133 39.0043L31.5993 40.9009L31.6636 40.5044ZM31.8886 29.0391L32.853 29.1998L30.1634 27.6461L31.8886 29.0391ZM32.7458 33.7966L27.5489 28.6105H27.3561L32.6065 34.6646L32.7458 33.7966ZM33.1101 31.525L30.0027 28.9962L28.9312 28.8355L32.8958 32.7894L33.1101 31.525ZM33.4316 29.5534L31.7922 29.2855L30.5171 29.0819L33.1744 31.225L33.4316 29.5534ZM31.5993 25.3852L31.5136 25.2887L30.5706 25.0316L31.5993 25.3852ZM33.7423 27.5282L33.9031 26.5103L32.4029 25.9852L33.7423 27.5282ZM33.7959 28.8355L35.1139 29.607H35.2103L35.1032 29.4784L33.7959 28.8355ZM33.9888 26.0066L31.9422 25.4495L32.0708 25.5995L33.9459 26.2531L33.9888 26.0066ZM34.2888 24.1529L30.3135 23.5207L30.9778 24.2815L34.1281 25.1387L34.2888 24.1529ZM35.1568 20.4026L34.9425 21.6884H36.7319L35.1568 20.4026ZM30.6028 16.3951L36.0676 13.1055L36.689 9.23727L29.4562 15.4628L30.6028 16.3951ZM31.9636 17.4666L35.5854 16.02L36.014 13.4055L30.8171 16.5344L31.9636 17.4666ZM34.0102 19.4489L33.4959 19.5882L34.0102 19.4489ZM34.3424 19.3846L35.071 19.2453V19.0846L34.246 19.3203L34.3424 19.3846ZM34.9639 19.899L35.0282 19.5132L34.5996 19.5989L34.9639 19.899ZM37.7498 22.4813H34.7924L34.5567 23.9065L40.7073 24.8923L37.7498 22.4813ZM13.2762 19.4811L0.846505 16.1058C0.771499 16.3736 0.696492 16.6415 0.6322 16.9094L13.0619 20.2847C13.1262 20.0061 13.1905 19.7489 13.2762 19.4811ZM14.9264 16.5022L4.9183 8.40148L4.75757 8.60507L14.7656 16.7058L14.9264 16.5022ZM13.2976 19.4275C13.2976 19.3096 13.3726 19.2025 13.4155 19.0846H13.3083L12.6011 18.2702L13.5548 18.7417C13.7407 18.3182 13.9592 17.9098 14.2084 17.5202L9.70802 14.9271L4.51112 8.9051L4.35039 9.15155L9.02225 14.5092L3.04313 11.0482C2.90383 11.2839 2.76454 11.5196 2.63595 11.7661L9.96519 16.0522L2.3895 12.2268L2.02518 12.9662L12.0011 17.9381L12.8262 18.881L1.24297 14.8628C1.24297 14.9485 1.24297 15.0235 1.16796 15.1092L13.1583 19.2668L13.2976 19.4275Z" fill="white"/>
</g>
<defs>
<clipPath id="clip0_812_5485">
<rect width="306.778" height="44" fill="white"/>
</clipPath>
</defs>
</svg>
