<svg width="512" height="73" viewBox="0 0 512 73" fill="none" xmlns="http://www.w3.org/2000/svg">
<path d="M125.416 20.5164C124.049 19.6656 122.542 19.0636 120.963 18.7386C119.252 18.3791 117.507 18.2003 115.759 18.2053H103.831V57.7071H109.321V40.3739H116.635C118.098 40.362 119.556 40.1891 120.981 39.8584C122.499 39.5203 123.946 38.9185 125.255 38.0806C126.583 37.2355 127.693 36.0904 128.492 34.7384C129.389 33.0614 129.827 31.1792 129.761 29.2807C129.827 27.4304 129.414 25.5944 128.563 23.9475C127.829 22.553 126.745 21.371 125.416 20.5164ZM123.949 29.2452C124.021 30.0948 123.877 30.9487 123.53 31.7284C123.184 32.5082 122.645 33.1887 121.964 33.7073C120.379 34.7541 118.5 35.271 116.599 35.1829H109.321V23.3608H116.635C118.534 23.2674 120.413 23.778 122 24.8186C122.674 25.3411 123.206 26.0233 123.546 26.8029C123.887 27.5824 124.025 28.4343 123.949 29.2807V29.2452Z" fill="#003E66"/>
<path d="M159.913 36.5165C161.709 34.5878 162.667 32.0322 162.577 29.4054C162.68 27.3288 162.177 25.2669 161.129 23.4677C160.225 21.9883 158.924 20.7881 157.373 20.0011C155.774 19.2365 154.058 18.7438 152.295 18.5433C150.42 18.3122 148.532 18.1994 146.643 18.2056H136.378V57.7073H141.869V40.3742H147.055L157.373 57.494L157.499 57.7073H164.169L153.189 39.7875C155.723 39.4367 158.079 38.2907 159.913 36.5165ZM156.748 29.4054C156.827 30.6193 156.472 31.822 155.746 32.801C155.043 33.6214 154.128 34.236 153.099 34.5787C151.91 34.9783 150.67 35.2058 149.415 35.2543C148.02 35.2543 146.715 35.3609 145.517 35.3609H141.94V23.3611H147.931C149.037 23.3637 150.141 23.429 151.239 23.5566C152.228 23.6841 153.189 23.9724 154.083 24.4099C154.901 24.8094 155.594 25.4243 156.086 26.1877C156.595 27.1362 156.825 28.2085 156.748 29.281V29.4054Z" fill="#003E66"/>
<path d="M203.87 23.112C202.01 21.2525 199.805 19.7675 197.378 18.7388C192.052 16.6535 186.127 16.6535 180.801 18.7388C178.362 19.7423 176.154 21.227 174.31 23.1032C172.466 24.9794 171.024 27.208 170.071 29.6542C169.015 32.2888 168.487 35.1028 168.515 37.9385C168.492 40.7623 169.02 43.5637 170.071 46.1873C171.049 48.641 172.508 50.8769 174.363 52.765C176.227 54.6237 178.446 56.0925 180.89 57.085C186.212 59.1954 192.146 59.1954 197.468 57.085C199.86 56.0802 202.034 54.6254 203.87 52.8006C205.737 50.918 207.202 48.6809 208.18 46.2229C210.231 40.9004 210.231 35.0123 208.18 29.6897C207.202 27.2317 205.737 24.9946 203.87 23.112ZM203.87 37.9741C203.887 40.0445 203.517 42.0999 202.779 44.0363C202.102 45.8489 201.089 47.5192 199.793 48.9606C198.476 50.3752 196.881 51.5066 195.107 52.2851C192.318 53.5249 189.209 53.871 186.213 53.2753C183.217 52.6796 180.481 51.1716 178.386 48.9606C177.033 47.5356 175.97 45.8633 175.257 44.0363C173.802 40.112 173.802 35.8007 175.257 31.8764C175.945 30.0424 176.983 28.3581 178.315 26.9164C179.688 25.4544 181.35 24.2887 183.196 23.4917C185.041 22.6948 187.032 22.2835 189.045 22.2835C191.057 22.2835 193.048 22.6948 194.894 23.4917C196.74 24.2887 198.401 25.4544 199.775 26.9164C201.101 28.3626 202.138 30.0457 202.833 31.8764C203.555 33.8276 203.907 35.8952 203.87 37.9741Z" fill="#003E66"/>
<path d="M212.704 23.3608H225.473V57.7071H230.963V23.3608H243.714V18.2053H212.704V23.3608Z" fill="#003E66"/>
<path d="M254.749 39.6984H273.133V34.5429H254.749V23.3608H274.438V18.2053H249.241V57.6893H275.44V52.5338H254.749V39.6984Z" fill="#003E66"/>
<path d="M311.171 48.3027C309.914 49.9253 308.315 51.2543 306.485 52.196C304.563 53.1187 302.45 53.5814 300.316 53.5471C298.316 53.5727 296.337 53.1536 294.521 52.3205C292.819 51.511 291.298 50.3682 290.051 48.9605C288.761 47.5139 287.759 45.8367 287.1 44.0183C286.388 42.0577 286.031 39.9873 286.045 37.9029C286.039 35.877 286.396 33.8663 287.1 31.9651C287.77 30.1279 288.783 28.433 290.086 26.9696C291.348 25.5406 292.887 24.3796 294.611 23.5563C296.396 22.705 298.354 22.2732 300.333 22.2941C302.125 22.2895 303.896 22.678 305.52 23.4319C307.168 24.1816 308.597 25.3383 309.669 26.7919L309.919 27.1474L314.64 23.7163L314.354 23.3608C312.714 21.2906 310.547 19.6946 308.077 18.7386C305.611 17.774 302.984 17.2795 300.333 17.2809C297.553 17.252 294.798 17.8094 292.25 18.9164C289.847 19.9575 287.676 21.4657 285.868 23.3524C284.059 25.2391 282.648 27.4663 281.717 29.9029C280.716 32.5012 280.212 35.2628 280.233 38.0451C280.204 40.8734 280.726 43.6806 281.771 46.3116C282.75 48.7414 284.189 50.9621 286.009 52.8538C287.815 54.7123 289.98 56.1879 292.375 57.1915C294.89 58.2571 297.6 58.7958 300.333 58.7737C303.265 58.818 306.173 58.2423 308.864 57.0849C311.453 55.8916 313.689 54.0547 315.355 51.7516L315.606 51.4138L311.475 47.965L311.171 48.3027Z" fill="#003E66"/>
<path d="M358.651 29.6899C357.666 27.231 356.195 24.9941 354.323 23.1121C352.461 21.2454 350.25 19.7596 347.813 18.7389C342.481 16.6525 336.55 16.6525 331.218 18.7389C328.779 19.7487 326.561 21.2221 324.69 23.0766C322.835 24.9647 321.376 27.2006 320.398 29.6543C319.357 32.2925 318.835 35.1048 318.86 37.9387C318.837 40.7608 319.359 43.5612 320.398 46.1875C321.376 48.6411 322.835 50.877 324.69 52.7652C326.554 54.6238 328.774 56.0926 331.218 57.0851C336.546 59.1948 342.485 59.1948 347.813 57.0851C350.265 56.0876 352.488 54.6081 354.351 52.7355C356.213 50.8629 357.675 48.6357 358.651 46.1875C360.702 40.865 360.702 34.9768 358.651 29.6543V29.6899ZM354.377 37.9742C354.387 40.0457 354.011 42.1012 353.268 44.0364C352.576 45.8578 351.538 47.5297 350.21 48.9608C348.9 50.3831 347.303 51.5157 345.524 52.2852C343.626 53.0941 341.581 53.5112 339.516 53.5112C337.45 53.5112 335.405 53.0941 333.507 52.2852C331.734 51.496 330.135 50.3662 328.803 48.9608C327.477 47.5184 326.444 45.834 325.763 44.0008C324.308 40.0765 324.308 35.7652 325.763 31.8409C326.444 30.0078 327.477 28.3233 328.803 26.881C330.175 25.4218 331.838 24.2633 333.685 23.4797C335.533 22.696 337.525 22.3044 339.533 22.3299C341.596 22.3047 343.64 22.7232 345.524 23.5566C347.301 24.3306 348.896 25.4626 350.21 26.881C351.542 28.3226 352.58 30.0069 353.268 31.8409C354.019 33.7987 354.395 35.8789 354.377 37.9742Z" fill="#003E66"/>
<path d="M398.959 32.1784C397.774 31.5475 396.785 30.6071 396.098 29.4585C395.411 28.263 395.059 26.9063 395.079 25.5296C395.055 24.1501 395.413 22.7907 396.116 21.6008C396.803 20.4522 397.792 19.5117 398.977 18.8808C400.223 18.2092 401.62 17.8664 403.037 17.8853C404.184 17.8705 405.322 18.0883 406.381 18.5253C407.354 18.915 408.223 19.5235 408.921 20.303L407.132 21.9741C406.635 21.4108 406.021 20.9605 405.333 20.6538C404.645 20.347 403.898 20.191 403.144 20.1963C402.189 20.1834 401.246 20.4161 400.408 20.8719C399.629 21.2871 398.975 21.9006 398.512 22.6496C398.054 23.4765 397.82 24.4077 397.833 25.3518C397.818 26.2905 398.052 27.2165 398.512 28.0363C398.971 28.7881 399.626 29.4024 400.408 29.814C401.248 30.2644 402.19 30.491 403.144 30.4718C403.899 30.4795 404.646 30.3245 405.334 30.0176C406.023 29.7107 406.636 29.2592 407.132 28.694L408.921 30.4718C408.221 31.256 407.344 31.8651 406.363 32.2495C405.304 32.6865 404.166 32.9043 403.019 32.8895C401.627 32.9965 400.231 32.7519 398.959 32.1784Z" fill="#003E66"/>
<path d="M414.608 32.1783C413.408 31.537 412.411 30.5768 411.728 29.405C411.048 28.2125 410.69 26.8649 410.69 25.494C410.69 24.123 411.048 22.7755 411.728 21.5829C412.416 20.4242 413.413 19.4768 414.608 18.8451C415.866 18.1736 417.275 17.831 418.703 17.8496C420.136 17.8326 421.551 18.175 422.816 18.8451C424.001 19.4761 424.99 20.4165 425.677 21.5651C426.38 22.755 426.739 24.1144 426.715 25.494C426.717 26.8723 426.34 28.225 425.624 29.405C424.937 30.5536 423.947 31.4941 422.762 32.125C421.497 32.7951 420.083 33.1375 418.649 33.1205C417.244 33.1466 415.855 32.8227 414.608 32.1783ZM421.385 30.0806C422.158 29.6629 422.806 29.0496 423.263 28.3028C423.703 27.482 423.933 26.5662 423.933 25.6362C423.933 24.7061 423.703 23.7904 423.263 22.9695C422.818 22.1901 422.169 21.5451 421.385 21.1029C420.566 20.6484 419.641 20.4155 418.703 20.4273C417.765 20.4155 416.84 20.6484 416.02 21.1029C415.264 21.5507 414.645 22.1963 414.232 22.9695C413.792 23.7904 413.562 24.7061 413.562 25.6362C413.562 26.5662 413.792 27.482 414.232 28.3028C414.658 29.0434 415.275 29.6571 416.02 30.0806C416.841 30.5289 417.766 30.7557 418.703 30.7383C419.639 30.7557 420.564 30.5289 421.385 30.0806Z" fill="#003E66"/>
<path d="M443.507 32.9607V23.1119L438.66 31.1829H437.427L432.544 23.1652V32.9607H429.916V18.0986H432.187L438.088 27.9474L443.9 18.0986H446.171V32.9607H443.507Z" fill="#003E66"/>
<path d="M459.941 18.7387C460.832 19.1065 461.596 19.7242 462.141 20.5165C462.664 21.3595 462.931 22.3349 462.909 23.3253C462.923 24.3204 462.657 25.2995 462.141 26.152C461.591 26.9394 460.828 27.5558 459.941 27.9297C458.871 28.3704 457.719 28.5824 456.561 28.5519H453.217V32.9608H450.445V18.0987H456.561C457.72 18.0739 458.872 18.2919 459.941 18.7387ZM459.19 25.5653C459.503 25.2961 459.75 24.9589 459.911 24.5797C460.072 24.2006 460.144 23.7896 460.12 23.3786C460.141 22.968 460.068 22.5579 459.907 22.1791C459.746 21.8004 459.501 21.4629 459.19 21.192C458.385 20.6344 457.414 20.3648 456.436 20.4276H453.217V26.3297H456.436C457.415 26.4012 458.389 26.1309 459.19 25.5653Z" fill="#003E66"/>
<path d="M475.107 29.5118H467.667L466.201 32.9607H463.339L470.046 18.0986H472.764L479.488 32.9607H476.591L475.107 29.5118ZM474.195 27.3607L471.387 20.8542L468.543 27.3607H474.195Z" fill="#003E66"/>
<path d="M495.19 18.0988V32.9608H492.918L484.638 22.8987V32.9608H481.902V18.0988H484.174L492.382 28.1609V18.0988H495.19Z" fill="#003E66"/>
<path d="M506.098 27.7164V32.9608H503.416V27.752L497.568 18.0988H500.519L504.882 25.3342L509.281 18.0988H512L506.098 27.7164Z" fill="#003E66"/>
<path d="M406.291 50.7385H408.902V56.6584C408.115 57.2953 407.21 57.7724 406.237 58.0628C405.22 58.3879 404.159 58.5557 403.09 58.5606C401.656 58.5792 400.241 58.2367 398.977 57.5651C397.792 56.9342 396.802 55.9937 396.115 54.8451C395.435 53.646 395.078 52.2928 395.078 50.9163C395.078 49.5397 395.435 48.1865 396.115 46.9874C396.804 45.8341 397.801 44.8927 398.995 44.2674C400.265 43.5951 401.686 43.2527 403.126 43.2719C404.288 43.2577 405.442 43.4691 406.524 43.8941C407.51 44.2791 408.392 44.8878 409.099 45.6719L407.31 47.4496C406.785 46.8874 406.149 46.4392 405.441 46.1333C404.733 45.8274 403.969 45.6703 403.197 45.6719C402.227 45.6598 401.269 45.8857 400.407 46.3296C399.619 46.7386 398.958 47.3532 398.494 48.1074C398.021 48.9359 397.781 49.8751 397.797 50.8274C397.78 51.7628 398.022 52.6848 398.494 53.494C398.942 54.2833 399.605 54.9305 400.407 55.3607C401.253 55.8326 402.21 56.0719 403.179 56.054C404.249 56.0718 405.304 55.808 406.237 55.2895L406.291 50.7385Z" fill="#003E66"/>
<path d="M422.548 58.4183L419.508 54.0627H415.573V58.4005H412.801V43.6273H418.935C420.089 43.6007 421.235 43.8189 422.297 44.2673C423.194 44.6258 423.961 45.2455 424.497 46.045C425.017 46.907 425.292 47.8932 425.292 48.8984C425.292 49.9035 425.017 50.8897 424.497 51.7517C423.922 52.5733 423.103 53.1951 422.154 53.5294L425.57 58.4183H422.548ZM421.546 46.6673C420.752 46.1029 419.784 45.8325 418.81 45.9028H415.573V51.8228H418.81C419.786 51.8864 420.753 51.6098 421.546 51.0406C421.862 50.7695 422.11 50.4294 422.272 50.0469C422.433 49.6644 422.503 49.25 422.476 48.8361C422.503 48.4275 422.433 48.0183 422.271 47.6415C422.11 47.2648 421.861 46.9311 421.546 46.6673Z" fill="#003E66"/>
<path d="M431.507 57.6362C430.317 57.0034 429.327 56.0559 428.646 54.8985C427.955 53.7094 427.591 52.3605 427.591 50.9874C427.591 49.6143 427.955 48.2655 428.646 47.0763C429.327 45.9189 430.317 44.9714 431.507 44.3386C432.776 43.687 434.183 43.3469 435.611 43.3469C437.039 43.3469 438.447 43.687 439.715 44.3386C440.904 44.9643 441.895 45.9059 442.577 47.0586C443.269 48.2537 443.633 49.6084 443.633 50.9874C443.633 52.3664 443.269 53.7211 442.577 54.9163C441.895 56.0689 440.904 57.0106 439.715 57.6362C438.447 58.2878 437.039 58.6279 435.611 58.6279C434.183 58.6279 432.776 58.2878 431.507 57.6362ZM438.285 55.5385C439.04 55.0886 439.658 54.4434 440.073 53.6718C440.513 52.851 440.743 51.9352 440.743 51.0052C440.743 50.0751 440.513 49.1594 440.073 48.3385C439.658 47.5669 439.04 46.9218 438.285 46.4719C437.462 46.0253 436.54 45.7913 435.602 45.7913C434.665 45.7913 433.742 46.0253 432.92 46.4719C432.117 46.8913 431.448 47.5256 430.988 48.303C430.548 49.1238 430.318 50.0396 430.318 50.9696C430.318 51.8997 430.548 52.8154 430.988 53.6363C431.428 54.4196 432.078 55.0659 432.866 55.5029C433.689 55.9495 434.611 56.1835 435.548 56.1835C436.486 56.1835 437.408 55.9495 438.231 55.5029L438.285 55.5385Z" fill="#003E66"/>
<path d="M448.067 56.8894C447.45 56.2278 446.973 55.449 446.666 54.5997C446.358 53.7505 446.227 52.8483 446.279 51.9472V43.6273H449.033V51.9117C449.033 54.8272 450.302 56.285 452.824 56.285C455.346 56.285 456.579 54.8272 456.579 51.9117V43.6273H459.298V52.0183C459.346 52.919 459.212 53.8201 458.905 54.6688C458.598 55.5174 458.123 56.2966 457.509 56.9605C456.165 58.0851 454.465 58.7017 452.708 58.7017C450.951 58.7017 449.25 58.0851 447.906 56.9605L448.067 56.8894Z" fill="#003E66"/>
<path d="M472.942 44.1962C473.839 44.5547 474.606 45.1745 475.142 45.974C475.673 46.8136 475.941 47.7914 475.911 48.7828C475.938 49.7795 475.671 50.7622 475.142 51.6095C474.606 52.409 473.839 53.0287 472.942 53.3872C471.88 53.8357 470.734 54.0538 469.58 54.0272H466.218V58.3116H463.446V43.6273H469.58C470.729 43.5782 471.875 43.7721 472.942 44.1962ZM472.12 51.0228C472.415 50.7408 472.649 50.4026 472.809 50.0284C472.969 49.6542 473.052 49.2517 473.052 48.8451C473.052 48.4384 472.969 48.0359 472.809 47.6617C472.649 47.2875 472.415 46.9493 472.12 46.6673C471.325 46.103 470.357 45.8326 469.384 45.9029H466.218V51.7872H469.455C470.405 51.8409 471.345 51.5713 472.12 51.0228Z" fill="#003E66"/>
<path d="M376.265 14.0811H379.055V61.8139H376.265V14.0811Z" fill="#003E66"/>
<path d="M21.6746 34.4362L0.4292 31.0763C0.4292 30.9341 0.4292 30.7918 0.4292 30.6496L21.6567 34.0274C21.6526 34.1639 21.6586 34.3006 21.6746 34.4362ZM71.748 37.3518H63.6468L68.7793 41.4762L71.3903 41.8851V42.3117L69.602 42.0273L71.283 43.3606C71.283 43.5206 71.283 43.6806 71.1936 43.8406L68.6005 41.8495L57.6201 40.0717L57.334 41.7606L70.675 45.3161C70.5677 45.7606 70.4425 46.205 70.2994 46.6317L57.1194 43.0762V43.5206L69.9596 47.9472C69.92 48.0862 69.8722 48.2227 69.8166 48.3561L57.0479 43.9473L56.726 45.9206L57.2803 46.5428L63.7183 49.7427L68.9582 50.5605C68.9582 50.7027 68.833 50.845 68.7793 50.9694L65.0059 50.3827L68.3144 52.0005C68.0998 52.4272 67.8852 52.8183 67.6706 53.2271L60.5172 49.6716L59.9807 49.5827L60.1417 49.7605L67.295 53.9205C67.0625 54.3116 66.8479 54.7205 66.5976 55.1116L62.7705 53.0316L65.7392 56.4271C65.7392 56.5516 65.5782 56.676 65.4888 56.8004L61.626 52.3738L56.1358 49.2272L55.6708 52.1249L63.9866 58.8093L63.7183 59.1471L55.5993 52.6049L55.2416 54.7738L61.8227 61.2982L60.8391 62.2582L54.9734 56.4449L54.7409 57.8849L59.5694 63.4315L59.2475 63.7159L54.6515 58.3826L53.4533 65.7781L54.3117 67.2003L53.9362 67.4137L53.346 66.4359V67.0226L53.811 67.5381L53.4175 67.7514L53.2566 67.5737V67.8937L52.6486 68.1959L47.4087 65.2803L49.1971 69.7959L48.7858 69.9381L46.6755 64.9604L45.2985 64.1781L47.0868 70.4892C46.0496 70.8092 44.9945 71.1114 43.9215 71.3425L41.2569 61.9382L41.0065 61.7959L42.92 71.627H42.4908L40.5058 61.5826L36.482 59.3426L36.643 72.3025H36.1959L36.0528 59.0938L32.798 57.316L30.4017 71.9114H29.9725L32.3688 57.156L29.4896 55.556L27.7013 60.4271L27.8444 71.5203L27.3973 71.4136L27.29 61.6182L24.214 70.507L23.9279 70.2936L27.3973 60.2849V56.7293L24.1783 60.676L19.6717 68.5159C18.6881 68.0181 17.7403 67.4848 16.8103 66.9159L24.7327 52.8538L23.4451 52.1427L13.4483 64.4804L13.1085 64.2137L23.141 51.9116L20.2797 50.3116L8.94167 60.0893L8.65554 59.7693L19.9757 50.0983L16.7567 48.3205L12.4647 50.8805L7.86867 58.8982C7.15334 57.9738 6.40224 56.996 5.74055 56.0716L6.72414 54.2938L5.22194 55.2005C5.22194 55.076 5.07887 54.9516 4.98945 54.8271L7.15334 53.5116L10.5869 47.3961L2.80768 50.4716C2.62885 50.0627 2.45002 49.6361 2.28907 49.1916L11.6421 45.5117L11.1413 45.2272L1.78833 47.8761C1.44855 46.845 1.16242 45.8139 0.91205 44.7472L7.0818 42.9695L6.29494 42.525L0.69745 43.6273C0.688859 43.4852 0.688859 43.3427 0.69745 43.2006L5.82997 42.2051L3.12958 40.7117L0.178833 40.2673C0.178833 40.1251 0.178833 39.9829 0.178833 39.8406L1.96717 40.1251L0.178833 39.0762C0.187697 38.9045 0.187697 38.7324 0.178833 38.5606L3.3263 40.3384L10.1399 41.4228L14.5749 40.5517L16.3633 37.3695H0C0 37.1207 0 36.8896 0 36.6584C0 36.4273 0 36.214 0 36.0007H16.9892L17.7045 34.7207L19.9936 36.0007H21.46V36.6584C21.46 36.6584 21.46 37.1207 21.46 37.3695H19.922L18.5987 39.7162L21.6031 38.8629C21.8013 40.1478 22.1806 41.3986 22.7297 42.5784L21.1739 43.2006L23.1768 43.5206L23.5702 44.1428L17.0965 48.0539L20.2261 49.8316L24.8578 45.8672L25.144 46.1872L20.6374 50.0272L23.4093 51.5738L26.6462 47.6094L26.986 47.8761L23.8027 51.7872L25.0367 52.516L27.433 48.2494C28.3136 48.8978 29.268 49.4408 30.2765 49.8672L27.8801 54.0983L28.6491 54.5249L30.0082 52.8716L30.9561 50.1161L31.3674 50.2761L30.7951 51.8938L31.9754 50.4538L32.4404 50.5605L30.4017 53.0316L29.7042 55.0582L32.5119 56.6049L33.424 50.7383H33.8532L32.8696 56.7827L36.0349 58.5604V50.9161H36.482V58.8271L40.3985 61.0137L39.1287 54.5249L38.0557 50.7383C39.1643 50.57 40.2501 50.2777 41.2926 49.8672L43.7069 56.0716L52.881 66.7381L53.0062 66.0092L42.92 49.1028L43.2777 48.8716L53.0599 65.2626L54.2223 58.0093L45.1197 47.5739C45.6212 47.1435 46.0932 46.6803 46.5325 46.1872L47.677 47.325L49.2865 47.5739L46.9617 45.7961C47.0608 45.6915 47.1505 45.5785 47.2299 45.4584L50.127 47.805L52.273 48.1428L47.8558 44.5872C48.269 43.9795 48.628 43.3371 48.9288 42.6673L56.0822 46.2228L53.1314 42.845L49.3223 41.5295C49.5011 40.9962 49.662 40.4451 49.7872 39.894L50.7887 40.1606L50.0734 39.1118C50.0734 38.9162 50.0734 38.7206 50.1628 38.5251L57.3161 39.6451L57.6917 37.3518H50.2522C50.2522 37.1029 50.2522 36.8718 50.2522 36.6407C50.2522 36.4096 50.2522 36.1962 50.2522 35.9829H57.8526L58.246 33.5474L57.2267 32.6763L51.0391 33.8674L50.127 34.134C49.9168 32.9634 49.5624 31.823 49.0719 30.7385L52.9168 29.2096L51.1285 27.7163L48.285 29.4052C48.1973 29.2936 48.1195 29.1747 48.0525 29.0496L50.6456 27.4852L48.8573 25.9919L47.069 27.5385L46.7828 27.2363L48.5712 25.7252L46.4967 24.0719L45.1733 25.6719L44.7084 25.3697L46.0317 23.7697L45.227 23.1119L44.1719 24.8897C43.2857 24.2496 42.3249 23.7183 41.3105 23.3075L42.6339 20.9431L41.7039 20.1786L40.6846 23.0764L40.2912 22.9342L41.3463 19.8942L39.0751 18.1164L38.3598 22.5075H37.9484L38.6995 17.8675L35.9813 15.6276V22.3297H35.8203H35.3554L32.5656 19.1297L32.9232 20.9075L33.3703 22.4542C32.2875 22.6261 31.2303 22.9307 30.2228 23.3608L29.4539 20.5164L27.9874 23.1475L28.6491 24.2675L28.2914 24.4986L27.7371 23.5741L27.129 24.6764V25.2986L26.6998 25.6186V25.423L26.5925 25.6186L26.2706 25.903L26.056 25.6541L25.6626 25.4408L26.1991 25.9741C25.8596 26.2761 25.5372 26.5966 25.2334 26.9341L21.2454 23.0053L9.04897 12.9609L9.3351 12.6409L17.9191 19.752L10.0326 11.8943L11.0161 10.9343L23.91 23.7164L24.0889 23.4141L12.2322 9.84985L12.5183 9.54763L24.2677 23.0053L25.7699 20.3386L17.2753 6.11656L17.6509 5.90323L26.0203 19.9297L26.5925 18.8986V13.0143L23.8027 5.90323L21.46 3.96547L21.8892 3.76992L23.4451 5.01435L22.8191 3.39659L23.2483 3.23659L24.1246 5.54768L25.5195 6.66766L24.4286 2.82771C25.4659 2.48993 26.5031 2.18771 27.5761 1.93883L29.9367 10.2232L30.5447 10.7032L28.7743 1.67216L29.1856 1.58327L30.9739 11.0232L35.3196 3.28992V0.96106H35.7667V2.54326L36.6966 0.96106C37.8927 0.988584 39.0865 1.07759 40.2733 1.22772L35.8561 9.04986V15.0587L38.7174 17.352L41.3105 1.35217H41.7218L39.2182 17.672L41.543 19.5564L47.3551 2.82771L47.7664 2.96993L41.9007 19.8409L42.9021 20.6586L51.8438 4.6588C52.8274 5.13879 53.7752 5.67212 54.7051 6.241L45.4416 22.703L46.3179 23.3964L58.2997 8.7832L58.6395 9.03208L46.6934 23.6986L48.7858 25.4763L61.3041 14.8098L61.7512 12.0543L62.1267 12.4454L61.8048 14.3831L62.9672 13.3876L63.2534 13.7076L61.6975 15.0409L60.6424 21.6008L66.4724 18.0453L66.687 18.4186L60.553 22.0986L59.8377 26.543L68.9939 22.9875C69.1728 23.4141 69.3337 23.8408 69.4947 24.2675L59.5694 28.1785L69.8523 25.2452C70.2104 26.2719 70.5148 27.3162 70.7644 28.3741L59.015 31.5918V31.8941L71.1399 29.5296V29.9563L58.872 32.3385L58.711 33.3696L61.9479 35.9829H71.7658V36.6407C71.7658 36.6407 71.7658 37.1029 71.7658 37.3518H71.748ZM26.5389 11.7698V10.1876L25.7341 7.37877L24.4465 6.29433L26.5389 11.7698ZM27.9338 16.5698L27.0038 14.152V18.1342L27.9338 16.5698ZM28.1663 15.9831L26.9681 11.7698V12.9254L28.1663 15.9831ZM30.7236 11.6276V11.3787L30.1871 10.9521L30.509 12.0898L30.7236 11.6276ZM33.6028 13.1743L35.5342 14.7387V9.83207L33.6028 13.1743ZM35.6236 21.9208L35.5342 15.2898L33.3882 13.512L32.0112 15.9831L32.4761 18.2942L35.6236 21.9208ZM6.40224 42.0984L8.7986 41.6362L4.292 40.9251L6.40224 42.0984ZM10.73 41.9562L10.0326 41.8495L6.99239 42.4362L7.68984 42.845L10.73 41.9562ZM11.9103 44.9961H11.6957H11.8388H11.9103ZM13.5913 41.1384L11.2486 41.6006H11.7315L13.5913 41.1384ZM16.2381 48.0539L14.4497 47.0939L12.7508 50.1161L16.2381 48.0539ZM23.2483 43.9117L20.5658 43.485L15.4154 45.4939L14.718 46.7206L16.6494 47.805L23.2483 43.9117ZM27.3436 56.0716V55.0049L25.3943 58.5604L27.3436 56.0716ZM27.7728 55.5382L28.363 54.8271L27.7549 54.5071L27.7728 55.5382ZM29.1498 55.2716L28.7385 55.0405L27.7907 56.2138V59.076L29.1498 55.2716ZM29.579 54.0094L29.0068 54.7027L29.2929 54.8627L29.579 54.0094ZM41.1317 61.4048L40.5952 59.5026L40.9528 61.2804L41.1317 61.4048ZM42.92 55.1649L42.3299 53.636L42.6875 54.8982L42.92 55.1649ZM46.4967 64.3915L43.385 56.3382L42.92 55.876L45.1197 63.6626L46.4967 64.3915ZM52.8453 67.2003L44.2076 57.2982L47.0868 64.7115L52.738 67.8581L52.8453 67.2003ZM53.2208 48.1783L54.8303 48.445L50.3416 45.8672L53.2208 48.1783ZM54.6515 56.0716L45.9781 47.4672H45.6562L54.419 57.5115L54.6515 56.0716ZM55.2595 52.3027L50.0734 48.1072L48.285 47.8405L54.9019 54.4005L55.2595 52.3027ZM55.796 49.0316L53.0599 48.5872L50.9318 48.2494L55.3668 51.8049L55.796 49.0316ZM52.738 42.1162L52.5949 41.9562L51.0212 41.5295L52.738 42.1162ZM56.3146 45.6717L56.5829 43.9828L54.0792 43.1117L56.3146 45.6717ZM56.4041 47.8405L58.6037 49.1205H58.7647L58.5858 48.9072L56.4041 47.8405ZM56.726 43.1473L53.3102 42.2228L53.5248 42.4717L56.6544 43.5561L56.726 43.1473ZM57.2267 40.0717L50.592 39.0229L51.7007 40.2851L56.9584 41.7073L57.2267 40.0717ZM58.6752 33.8496L58.3176 35.9829H61.3041L58.6752 33.8496ZM51.0748 27.2008L60.1953 21.7431L61.2326 15.3253L49.1613 25.6541L51.0748 27.2008ZM53.346 28.9785L59.3906 26.5786L60.1059 22.2408L51.4325 27.4319L53.346 28.9785ZM56.7617 32.2674L55.9033 32.4985L56.7617 32.2674ZM57.3161 32.1607L58.5322 31.9296V31.6629L57.1552 32.0541L57.3161 32.1607ZM58.3533 33.014L58.4606 32.374L57.7453 32.5163L58.3533 33.014ZM63.003 37.2984H58.0672L57.6738 39.6629L67.9388 41.2984L63.003 37.2984ZM22.1575 32.3207L1.41278 26.7208C1.2876 27.1652 1.16242 27.6097 1.05512 28.0541L21.7998 33.654C21.9071 33.1918 22.0144 32.7652 22.1575 32.3207ZM24.9115 27.3785L8.20845 13.9387L7.9402 14.2765L24.6432 27.7163L24.9115 27.3785ZM22.1932 32.2318C22.1932 32.0363 22.3184 31.8585 22.3899 31.6629H22.2111L21.0308 30.3118L22.6224 31.0941C22.9326 30.3914 23.2973 29.7138 23.7133 29.0674L16.2023 24.7652L7.52889 14.7742L7.26064 15.1831L15.0578 24.0719L5.07887 18.3298C4.84639 18.7209 4.6139 19.112 4.3993 19.5209L16.6315 26.6319L3.98798 20.2853L3.37995 21.5119L20.0293 29.7607L21.4064 31.3252L2.07447 24.6586C2.07447 24.8008 2.07447 24.9252 1.94928 25.0675L21.9607 31.9652L22.1932 32.2318Z" fill="#003E66"/>
</svg>
