<svg width="312" height="312" viewBox="0 0 312 312" fill="none" xmlns="http://www.w3.org/2000/svg">
<path d="M127.773 65.0591C127.95 64.7045 128.127 64.35 128.127 63.8182L127.773 63.6409L125.295 60.8046L128.658 62.4C129.366 60.9818 130.074 59.5636 130.958 58.1455L115.385 49.1045L97.5111 28.3636C97.3341 28.5409 97.1571 28.8954 96.9801 29.0727L113.084 47.6863L92.5559 35.8091C92.025 36.6955 91.6711 37.4045 91.1401 38.2909L116.447 52.8273L90.4323 39.8863C90.0783 40.7727 89.5474 41.6591 89.1935 42.3682L123.526 59.5636L126.357 62.7545L86.5389 48.9273C86.3619 49.2818 86.362 49.4591 86.185 49.8136L127.596 64.1727L127.773 65.0591ZM133.259 54.9545L98.7498 26.9455C98.5729 27.1227 98.3959 27.4773 98.219 27.6545L132.728 55.6636C132.905 55.4863 133.082 55.3091 133.259 54.9545ZM127.596 65.4136L84.7692 53.7136C84.5922 54.6 84.2383 55.4863 84.0613 56.55L126.888 68.25C127.065 67.1863 127.419 66.3 127.596 65.4136ZM211.834 75.6954H201.747L201.039 80.6591L222.275 84.0272L211.834 75.6954ZM202.277 66.8318L202.454 65.5909L201.039 65.9454L202.277 66.8318ZM200.154 65.0591L202.631 64.5272L202.808 63.9954L199.977 64.8818L200.154 65.0591ZM198.915 65.2364L196.968 65.5909L198.915 65.2364ZM192.013 58.5L204.578 53.5364L205.994 44.4954L188.12 55.3091L192.013 58.5ZM187.235 54.6L205.994 43.2545L208.118 29.9591L183.165 51.4091L187.235 54.6ZM202.985 68.6045L202.277 73.0364H208.471L202.985 68.6045ZM199.977 81.3681L186.35 79.2409L188.651 81.9L199.446 84.9136L199.977 81.3681ZM198.915 87.75L191.836 85.8L192.367 86.3318L198.915 88.6363V87.75ZM198.207 97.5L202.808 100.159H203.162L202.808 99.6273L198.207 97.5ZM198.03 92.8909L198.561 89.3454L193.429 87.5727L198.03 92.8909ZM190.597 85.6227L190.244 85.2682L187.058 84.3818L190.597 85.6227ZM196.968 100.159L191.305 99.2727L186.881 98.5636L196.084 106.009L196.968 100.159ZM195.907 106.895L185.111 98.209L181.395 97.6772L195.022 111.327L195.907 106.895ZM194.668 114.695L176.794 96.7909L176.086 96.6136L194.137 117.532L194.668 114.695ZM191.659 98.3863L195.022 98.9182L185.819 93.6L191.659 98.3863ZM190.951 137.918L173.077 117.355L179.094 132.777L190.774 139.336L190.951 137.918ZM177.679 132.068L171.308 115.405L170.423 114.341L175.024 130.473L177.679 132.068ZM170.423 112.923L169.184 109.732L169.892 112.391L170.423 112.923ZM166.706 125.864L165.645 121.964L166.353 125.686L166.706 125.864ZM142.992 110.441L141.754 111.859L142.285 112.214L142.992 110.441ZM142.108 113.1L141.223 112.568L139.276 115.05V121.077L142.108 113.1ZM139.276 113.632L140.515 112.214L139.276 111.504V113.632ZM138.391 114.695V112.568L134.321 119.836L138.391 114.695ZM129.72 89.5227L124.234 88.6363L113.792 92.7136L112.377 95.3727L116.447 97.6772L129.72 89.5227ZM115.385 98.0318L111.846 96.0818L108.306 102.286L115.385 98.0318ZM109.899 83.6727L105.121 84.5591L106.183 84.7364L109.899 83.6727ZM106.537 91.65L106.006 91.8273L106.36 92.0045L106.537 91.65ZM104.059 85.2682L102.466 85.0909L96.2723 86.3318L97.6881 87.2182L104.059 85.2682ZM95.0335 85.6227L99.9887 84.7364L90.6093 83.3181L95.0335 85.6227ZM155.38 43.6091L155.203 29.7818L150.779 26.2364L147.948 31.3773L148.832 36.1636L155.38 43.6091ZM151.31 25.5273L155.38 28.7182L155.203 18.4364L151.31 25.5273ZM145.293 22.1591L145.116 21.6273L144.054 20.7409L144.762 23.0454L145.293 22.1591ZM139.984 31.3773L137.506 22.6909V25.1727L139.984 31.3773ZM139.63 32.6182L137.683 27.6545L137.86 35.9864L139.63 32.6182ZM136.622 22.5136V19.1455L135.029 13.2954L132.374 11.1682L136.622 22.5136ZM230.062 75.6954H213.25L223.868 84.2045L229.177 85.0909C229.177 85.4454 229 85.6227 229 85.9772L225.107 85.4454L228.646 88.2818C228.646 88.6364 228.469 88.9909 228.469 89.3454L223.514 85.2682L200.862 81.7227L200.331 85.2682L227.938 92.7136C227.761 93.6 227.407 94.4864 227.23 95.3727L199.977 87.9272L199.8 88.8136L226.345 98.0318C226.168 98.3864 226.169 98.5636 225.992 98.9182L199.623 89.7L198.915 93.7772L199.977 95.0182L213.25 101.577L224.045 103.35C223.868 103.705 223.868 103.882 223.691 104.236L215.904 102.995L222.629 106.364C222.275 107.25 221.744 108.136 221.39 108.845L206.525 101.4L205.463 101.223L205.817 101.577L220.682 110.264C220.152 111.15 219.798 111.859 219.267 112.745L211.48 108.314L217.674 115.405C217.497 115.582 217.32 115.936 217.143 116.114L209.179 106.895L197.853 100.336L196.968 106.364L214.134 120.368C213.958 120.545 213.781 120.9 213.604 121.077L196.791 107.427L196.084 111.859L209.71 125.332C209.002 126.041 208.471 126.75 207.764 127.282L195.553 115.227L195.022 118.241L204.932 129.764C204.755 129.941 204.401 130.118 204.224 130.295L194.668 119.305L192.19 134.727L193.96 137.741C193.783 137.918 193.429 138.095 193.252 138.095L192.013 136.145L191.836 137.386L192.721 138.45C192.544 138.627 192.19 138.804 192.013 138.982L191.659 138.627L191.482 139.336C191.128 139.514 190.597 139.691 190.244 140.045L179.448 134.018L182.988 143.414C182.634 143.591 182.457 143.591 182.103 143.768L178.033 133.309L175.201 131.714L178.917 144.832C176.794 145.541 174.67 146.073 172.369 146.605L166.883 127.105L166.353 126.75L170.246 147.136C169.892 147.136 169.715 147.314 169.361 147.314L165.291 126.218L156.973 121.609L157.327 148.555C156.973 148.555 156.796 148.555 156.442 148.555L156.088 121.077L149.363 117.355L144.408 147.845C144.054 147.845 143.877 147.668 143.523 147.668L148.479 117L142.462 113.632L138.922 123.736L139.276 146.782C138.922 146.782 138.745 146.605 138.391 146.605L138.214 126.218L131.843 144.654C131.489 144.477 131.312 144.477 130.958 144.3L138.214 123.559V116.114L131.666 124.268L122.641 140.577C120.694 139.514 118.571 138.45 116.801 137.209L133.082 107.959L130.428 106.541L109.722 132.245C109.545 132.068 109.191 131.891 109.014 131.714L129.72 106.186L123.88 102.818L100.343 123.204C100.166 123.027 99.9886 122.673 99.8117 122.495L123.172 102.464L116.447 98.7409L107.598 104.059L98.219 120.723C96.6262 118.773 95.2105 116.823 93.7947 114.695L95.7414 111.15L92.5559 113.1C92.3789 112.923 92.202 112.568 92.025 112.391L96.4493 109.732L103.528 96.9682L87.4238 103.35C87.0698 102.464 86.7159 101.577 86.3619 100.691L105.652 93.0681L104.59 92.5363L85.3001 98.0318C84.5923 95.9045 84.0614 93.7772 83.5304 91.4727L96.2723 87.75L94.6796 86.8636L82.9995 89.1682C82.9995 88.8136 82.8225 88.6364 82.8225 88.2818L93.4407 86.1545L87.9547 82.9636L81.9377 82.0773C81.9377 81.7227 81.9377 81.5455 81.9377 81.1909L85.6541 81.7227L81.7607 79.5954C81.7607 79.2409 81.7607 78.8864 81.7607 78.5318L88.3086 82.2545L102.466 84.5591L111.669 82.7864L115.385 76.2272H81.9377C81.9377 75.6954 81.9377 75.1636 81.9377 74.8091C81.9377 74.2773 81.9377 73.9227 81.9377 73.3909H116.978L118.394 70.7318L123.172 73.3909H126.357C126.357 73.9227 126.357 74.2773 126.357 74.8091C126.357 75.3409 126.357 75.8727 126.357 76.2272H123.172L120.517 81.1909L126.711 79.4182C127.065 82.0773 127.95 84.7364 129.012 87.2182L125.826 88.459L129.897 89.1682C130.074 89.7 130.428 90.0545 130.604 90.409L117.155 98.5636L123.703 102.286L133.259 94.1318C133.436 94.3091 133.613 94.4863 133.79 94.8409L124.411 102.818L130.251 106.009L136.975 97.8545C137.152 98.0318 137.506 98.2091 137.683 98.3863L131.135 106.541L133.613 107.959L138.568 99.0954C140.338 100.514 142.285 101.577 144.408 102.464L139.453 111.327L141.046 112.214L143.877 108.668L145.824 102.995C146.178 103.173 146.355 103.173 146.709 103.35L145.47 106.718L147.948 103.705C148.302 103.705 148.656 103.882 148.832 103.882L144.585 109.023L143.169 113.277L149.009 116.468L150.956 104.236C151.31 104.236 151.487 104.414 151.841 104.414L149.894 117L156.442 120.723L156.265 104.768C156.619 104.768 156.796 104.768 157.15 104.768L157.327 121.254L165.468 125.864L162.813 112.391L160.689 104.591C162.99 104.236 165.291 103.705 167.414 102.818L172.369 115.759L191.128 136.677L191.305 135.082L170.6 100.159C170.777 99.9818 171.131 99.8045 171.308 99.6273L191.482 133.664L193.96 118.595L175.201 97.1454C176.263 96.2591 177.148 95.3727 178.21 94.3091L180.51 96.6136L183.873 97.1454L179.094 93.2454C179.271 93.0682 179.448 92.7136 179.625 92.5363L185.642 97.3227L190.067 98.0318L181.041 90.5863C181.926 89.3454 182.634 87.9273 183.165 86.5091L198.03 93.9545L192.013 86.8636L184.227 84.2045C184.58 83.1409 184.934 81.9 185.288 80.8363L187.412 81.3681L185.642 79.2409C185.642 78.8864 185.819 78.3545 185.819 78L200.508 80.3045L201.216 75.5182H185.996C185.996 74.9863 185.996 74.4545 185.996 74.1C185.996 73.5682 185.996 73.2136 185.996 72.6818H201.747L202.631 67.5409L200.331 65.7682L187.589 68.25L185.642 68.7818C185.288 66.3 184.404 63.9955 183.519 61.6909L191.482 58.5L187.589 55.4864L181.926 58.8545C181.749 58.6773 181.572 58.3227 181.395 58.1455L186.704 54.9545L182.811 51.7636L179.094 54.9545C178.917 54.7772 178.74 54.6 178.563 54.2454L182.28 51.0546L178.033 47.6863L175.378 51.0546C175.201 50.8773 174.847 50.7 174.67 50.5227L177.325 47.1545L175.732 45.7364L173.608 49.6363C171.839 48.3954 169.892 47.1545 167.768 46.2682L170.6 41.3046L168.653 39.7091L166.53 45.7364C166.176 45.5591 165.999 45.5591 165.645 45.3818L167.768 39L163.167 35.2772L161.751 44.3182C161.397 44.3182 161.22 44.1409 160.866 44.1409L162.459 34.5682L156.796 29.9591L156.973 43.9636C156.796 43.9636 156.796 43.9636 156.619 43.9636C156.265 43.9636 155.911 43.9636 155.734 43.9636L149.894 37.2273L150.602 41.1273L151.487 44.3182C149.186 44.6727 147.063 45.3818 144.939 46.2682L143.169 40.2409L140.161 45.7364L141.577 48.0409C141.4 48.2182 141.046 48.3954 140.869 48.5727L139.807 46.6227L138.568 48.9273V50.1682C138.214 50.3455 138.037 50.5227 137.683 50.8773V50.5227L137.506 50.8773L137.683 51.0546C137.506 51.2318 137.329 51.4091 136.975 51.5864L136.445 51.0546L135.737 50.7L136.798 51.7636C136.091 52.4727 135.383 53.0046 134.852 53.7136L126.534 45.3818L100.52 24.9955C100.697 24.8182 100.874 24.4636 101.05 24.2864L118.748 39L102.466 22.6909C103.174 21.9818 103.882 21.2727 104.413 20.7409L130.958 47.3318L131.312 46.6227L106.89 18.4364C107.067 18.2591 107.421 18.0818 107.598 17.9045L131.843 45.9136L135.029 40.4182L117.509 10.8136C117.686 10.6364 118.04 10.4591 118.217 10.2818L135.56 39.3545L136.798 37.2273L136.622 24.9955L130.958 10.1046L126.18 6.20454C126.534 6.02727 126.711 5.85 127.065 5.85L130.251 8.50909L129.012 5.14092C129.366 4.96365 129.543 4.96366 129.897 4.78638L131.666 9.57274L134.498 11.8773L132.197 3.90002C134.321 3.19093 136.445 2.48183 138.745 1.95001L143.523 19.1455L144.762 20.2091L141.046 1.41819C141.4 1.41819 141.577 1.24093 141.931 1.24093L145.824 20.9182L154.849 4.78638V0C155.203 0 155.38 0 155.734 0V3.3682L157.504 0.177283C159.982 0.177283 162.459 0.354562 164.937 0.709107L155.911 17.0182L156.088 29.4273L161.928 34.2137L167.237 0.886363C167.591 0.886363 167.768 1.06365 168.122 1.06365L162.636 34.7454L167.414 38.6455L179.448 3.90002C179.802 4.07729 179.979 4.07729 180.333 4.25456L168.299 39.3545L170.423 40.95L189.005 7.80001C190.951 8.86365 193.075 9.92727 194.845 11.1682L175.732 45.3818L177.502 46.8L202.101 16.3091C202.278 16.4864 202.631 16.6636 202.808 16.8409L178.21 47.3318L182.457 50.8773L208.295 28.5409L209.179 22.8682C209.356 23.2227 209.71 23.4 209.887 23.7546L209.179 27.8318L211.657 25.7045C211.834 25.8818 212.011 26.2364 212.188 26.4136L209.002 29.25L207.056 42.7227L219.09 35.4545C219.267 35.6318 219.444 35.9863 219.621 36.1636L206.879 43.7864L205.463 53.0045L224.399 45.3818C224.753 46.2682 225.107 47.1545 225.461 48.0409L204.932 56.1955L226.168 50.1682C226.876 52.2955 227.584 54.4227 228.115 56.7272L203.87 63.6409L203.693 64.35L228.646 59.3863C228.646 59.7409 228.823 59.9182 228.823 60.2727L203.516 65.2364L203.162 67.3636L209.887 72.8591H230.062C230.062 73.3909 230.062 73.7454 230.062 74.2772C230.062 74.8091 230.062 75.3409 230.062 75.6954ZM126.711 69.6682L82.8225 62.5773C82.8225 62.2227 82.9995 62.0455 82.9995 61.6909L126.888 68.7818C126.711 69.1364 126.711 69.4909 126.711 69.6682Z" fill="#003E66"/>
<path d="M35.5717 310.404C34.1559 309.518 32.9171 308.454 32.0323 307.036C31.1474 305.618 30.7935 304.023 30.7935 302.25C30.7935 300.477 31.1474 298.882 32.0323 297.464C32.9171 296.045 33.9789 294.982 35.5717 294.095C36.9874 293.209 38.7571 292.854 40.5268 292.854C41.9426 292.854 43.3584 293.032 44.5971 293.564C45.8359 294.095 46.8978 294.804 47.7826 295.868L45.659 297.995C44.4202 296.577 42.6505 295.868 40.8808 295.868C39.642 295.868 38.5802 296.223 37.5183 296.754C36.4565 297.286 35.7486 297.995 35.2177 299.059C34.6868 299.945 34.3329 301.186 34.3329 302.427C34.3329 303.668 34.6868 304.732 35.2177 305.795C35.7486 306.682 36.4565 307.568 37.5183 308.1C38.5802 308.632 39.642 308.986 40.8808 308.986C42.8275 308.986 44.4202 308.277 45.659 306.859L47.7826 308.986C46.8978 310.05 45.8359 310.759 44.5971 311.291C43.3584 311.823 41.9426 312 40.5268 312C38.7571 311.645 37.1644 311.291 35.5717 310.404Z" fill="#003E66"/>
<path d="M62.8246 307.923C63.7094 307.391 64.5943 306.682 65.1252 305.618C65.6561 304.554 66.0101 303.491 66.0101 302.25C66.0101 301.009 65.6561 299.945 65.1252 298.882C64.5943 297.818 63.8864 297.109 62.8246 296.577C61.9397 296.045 60.7009 295.691 59.6391 295.691C58.4003 295.691 57.3385 296.045 56.4537 296.577C55.5688 297.109 54.684 297.818 54.1531 298.882C53.6222 299.945 53.2682 301.009 53.2682 302.25C53.2682 303.491 53.6222 304.554 54.1531 305.618C54.684 306.682 55.3918 307.391 56.4537 307.923C57.3385 308.454 58.5773 308.809 59.6391 308.809C60.8779 308.632 61.9397 308.454 62.8246 307.923ZM54.684 310.404C53.2682 309.518 52.0294 308.454 51.1445 307.036C50.2597 305.618 49.9058 304.023 49.9058 302.25C49.9058 300.477 50.2597 298.882 51.1445 297.464C52.0294 296.045 53.0912 294.982 54.684 294.095C56.0997 293.209 57.8694 292.854 59.6391 292.854C61.4088 292.854 63.1785 293.209 64.5943 294.095C66.0101 294.982 67.2489 296.045 68.1337 297.464C69.0186 298.882 69.3725 300.477 69.3725 302.25C69.3725 304.023 69.0186 305.618 68.1337 307.036C67.2489 308.454 66.187 309.518 64.5943 310.404C63.1785 311.291 61.4088 311.645 59.6391 311.645C57.8694 311.645 56.0997 311.291 54.684 310.404Z" fill="#003E66"/>
<path d="M89.9013 311.291V299.237L83.8843 309.341H82.4686L76.4516 299.414V311.291H73.2661V293.209H76.0976L83.1765 305.264L90.2553 293.209H93.0868V311.291H89.9013Z" fill="#003E66"/>
<path d="M108.837 302.25C109.545 301.541 109.899 300.655 109.899 299.591C109.899 298.35 109.545 297.464 108.837 296.932C108.129 296.223 106.89 296.046 105.475 296.046H101.581V303.314H105.475C107.067 303.314 108.129 302.959 108.837 302.25ZM109.722 293.918C110.961 294.45 111.845 295.159 112.376 296.223C113.084 297.109 113.261 298.35 113.261 299.768C113.261 301.009 112.907 302.25 112.376 303.137C111.668 304.2 110.784 304.909 109.722 305.441C108.483 305.973 107.244 306.15 105.652 306.15H101.581V311.468H98.2188V293.209H105.652C107.244 293.209 108.66 293.387 109.722 293.918Z" fill="#003E66"/>
<path d="M127.065 304.555L123.703 296.577L120.34 304.555H127.065ZM128.304 307.214H119.278L117.509 311.468H113.969L122.11 293.209H125.472L133.613 311.468H130.074L128.304 307.214Z" fill="#003E66"/>
<path d="M152.725 293.209V311.291H149.894L139.984 299.059V311.291H136.621V293.209H139.276L149.363 305.441V293.209H152.725Z" fill="#003E66"/>
<path d="M165.999 304.909V311.291H162.636V305.087L155.558 293.209H159.097L164.406 302.073L169.715 293.209H173.078L165.999 304.909Z" fill="#003E66"/>
<path d="M195.906 302.073H199.091V309.341C198.207 310.05 197.145 310.582 195.906 311.114C194.667 311.468 193.428 311.645 192.013 311.645C190.243 311.645 188.473 311.291 187.058 310.404C185.642 309.518 184.403 308.454 183.518 307.036C182.633 305.618 182.279 304.023 182.279 302.25C182.279 300.477 182.633 298.882 183.518 297.464C184.403 296.045 185.465 294.982 187.058 294.095C188.473 293.209 190.243 292.854 192.013 292.854C193.605 292.854 194.844 293.032 196.083 293.564C197.322 294.095 198.384 294.805 199.268 295.691L197.145 297.818C195.729 296.4 194.136 295.691 192.19 295.691C190.951 295.691 189.712 296.045 188.827 296.577C187.765 297.109 187.057 297.818 186.527 298.882C185.996 299.768 185.642 301.009 185.642 302.25C185.642 303.491 185.996 304.554 186.527 305.441C187.057 306.327 187.942 307.214 188.827 307.745C189.889 308.277 190.951 308.632 192.19 308.632C193.605 308.632 194.844 308.277 195.906 307.745V302.073Z" fill="#003E66"/>
<path d="M214.31 296.932C213.602 296.223 212.363 296.045 210.947 296.045H207.054V303.314H210.947C212.363 303.314 213.602 302.959 214.31 302.427C215.018 301.718 215.371 300.832 215.371 299.768C215.548 298.527 215.194 297.641 214.31 296.932ZM215.548 311.291L211.832 305.973C211.655 305.973 211.478 305.973 211.124 305.973H207.054V311.291H203.691V293.032H211.124C212.717 293.032 214.133 293.209 215.194 293.741C216.433 294.273 217.318 294.982 217.849 296.045C218.557 296.932 218.734 298.173 218.734 299.591C218.734 301.009 218.38 302.073 217.672 303.136C216.964 304.2 216.079 304.909 214.841 305.264L219.088 311.291H215.548Z" fill="#003E66"/>
<path d="M234.663 307.923C235.547 307.391 236.432 306.682 236.963 305.618C237.494 304.554 237.848 303.491 237.848 302.25C237.848 301.009 237.494 299.945 236.963 298.882C236.432 297.818 235.724 297.109 234.663 296.577C233.778 296.045 232.539 295.691 231.477 295.691C230.238 295.691 229.176 296.045 228.292 296.577C227.407 297.109 226.522 297.818 225.991 298.882C225.46 299.945 225.106 301.009 225.106 302.25C225.106 303.491 225.46 304.554 225.991 305.618C226.522 306.682 227.23 307.391 228.292 307.923C229.176 308.454 230.415 308.809 231.477 308.809C232.716 308.632 233.778 308.454 234.663 307.923ZM226.522 310.404C225.106 309.518 223.867 308.454 222.982 307.036C222.098 305.618 221.744 304.023 221.744 302.25C221.744 300.477 222.098 298.882 222.982 297.464C223.867 296.045 224.929 294.982 226.522 294.095C227.938 293.209 229.707 292.854 231.477 292.854C233.247 292.854 235.016 293.209 236.432 294.095C237.848 294.982 239.087 296.045 239.972 297.464C240.856 298.882 241.21 300.477 241.21 302.25C241.21 304.023 240.856 305.618 239.972 307.036C239.087 308.454 238.025 309.518 236.432 310.404C235.016 311.291 233.247 311.645 231.477 311.645C229.707 311.645 227.938 311.291 226.522 310.404Z" fill="#003E66"/>
<path d="M246.697 309.518C245.281 308.1 244.573 306.15 244.573 303.491V293.209H247.936V303.313C247.936 306.859 249.528 308.631 252.537 308.631C255.545 308.631 257.138 306.859 257.138 303.313V293.209H260.501V303.491C260.501 306.15 259.793 308.1 258.377 309.518C256.961 310.936 255.014 311.645 252.537 311.645C250.059 311.645 248.113 310.936 246.697 309.518Z" fill="#003E66"/>
<path d="M275.897 302.25C276.605 301.541 276.959 300.654 276.959 299.591C276.959 298.35 276.605 297.463 275.897 296.931C275.189 296.222 273.95 296.045 272.534 296.045H268.641V303.313H272.534C274.127 303.313 275.189 302.959 275.897 302.25ZM276.959 293.918C278.197 294.45 279.082 295.159 279.613 296.222C280.321 297.109 280.498 298.35 280.498 299.768C280.498 301.009 280.144 302.25 279.613 303.136C278.905 304.2 278.02 304.909 276.959 305.441C275.72 305.972 274.481 306.15 272.888 306.15H268.818V311.468H265.456V293.209H272.888C274.304 293.209 275.72 293.386 276.959 293.918Z" fill="#003E66"/>
<path d="M185.111 271.05H126.71V274.418H185.111V271.05Z" fill="#003E66"/>
<path d="M24.5989 217.336C24.5989 219.818 23.891 221.591 22.1213 222.831C20.5286 224.072 18.2279 224.604 15.5734 224.604H6.72488V210.068H15.5734C18.2279 210.068 20.3516 210.6 22.1213 211.841C23.714 213.081 24.5989 214.854 24.5989 217.336ZM26.3686 206.7C24.7758 205.636 23.0061 204.927 20.8825 204.572C18.9358 204.218 16.8122 203.863 14.5116 203.863H0V252.259H6.72488V230.986H15.5734C17.1661 230.986 19.1128 230.809 20.8825 230.454C22.8292 230.1 24.4219 229.391 26.0146 228.327C27.6074 227.263 29.0231 225.845 29.908 224.072C30.9698 222.3 31.5007 219.995 31.5007 217.336C31.5007 214.854 30.9698 212.727 30.085 210.954C29.2001 209.004 27.9613 207.586 26.3686 206.7Z" fill="#003E66"/>
<path d="M64.4184 217.336C64.4184 219.109 64.0645 220.527 63.1796 221.413C62.2948 222.477 61.233 223.186 59.9942 223.541C58.5784 224.072 57.1626 224.25 55.5699 224.427C53.8002 224.427 52.2075 224.604 50.7917 224.604H46.3675V210.068H53.6232C55.039 210.068 56.2778 210.068 57.6936 210.245C58.9324 210.422 60.1712 210.777 61.233 211.309C62.2948 211.841 63.0027 212.55 63.7106 213.436C64.2415 214.5 64.4184 215.741 64.4184 217.336ZM68.3118 226.2C70.4354 223.895 71.4972 221.059 71.4972 217.336C71.4972 214.322 70.9663 211.841 69.7275 210.068C68.6657 208.295 67.073 206.877 65.1263 205.991C63.3566 205.104 61.233 204.395 58.9324 204.218C56.6317 203.863 54.3311 203.863 52.2075 203.863H39.6426V252.259H46.3675V230.986H52.7384L65.3033 251.904L65.4803 252.081H73.6209L60.1711 230.1C63.5336 229.568 66.3651 228.15 68.3118 226.2Z" fill="#003E66"/>
<path d="M121.932 227.972C121.932 230.631 121.401 233.113 120.516 235.418C119.632 237.722 118.393 239.85 116.8 241.445C115.207 243.218 113.261 244.459 111.137 245.522C109.013 246.586 106.536 246.941 103.881 246.941C101.227 246.941 98.7491 246.409 96.6254 245.522C94.5018 244.459 92.5551 243.218 90.9624 241.445C89.3696 239.672 88.1308 237.722 87.246 235.418C86.3611 233.113 86.0072 230.631 86.0072 227.972C86.0072 225.313 86.3611 222.831 87.246 220.527C88.1308 218.222 89.3696 216.095 90.9624 214.5C92.5551 212.727 94.5018 211.486 96.6254 210.422C98.7491 209.359 101.227 209.004 103.881 209.004C106.536 209.004 109.013 209.536 111.137 210.422C113.261 211.486 115.207 212.727 116.8 214.5C118.393 216.272 119.632 218.222 120.516 220.527C121.401 222.831 121.932 225.313 121.932 227.972ZM121.755 209.713C119.455 207.409 116.8 205.636 113.792 204.395C110.783 203.154 107.421 202.445 103.704 202.445C99.9879 202.445 96.6254 203.154 93.6169 204.395C90.6084 205.636 87.9539 207.409 85.6533 209.713C83.3526 212.018 81.5829 214.677 80.3441 217.691C79.1054 220.704 78.3975 224.25 78.3975 227.795C78.3975 231.34 79.1054 234.886 80.3441 237.9C81.5829 240.913 83.3526 243.75 85.6533 245.877C87.9539 248.181 90.6084 249.954 93.6169 251.195C96.6254 252.436 99.9879 253.145 103.704 253.145C107.421 253.145 110.783 252.436 113.792 251.195C116.8 249.954 119.455 248.181 121.755 245.877C124.056 243.572 125.826 240.913 127.064 237.9C128.303 234.886 129.011 231.34 129.011 227.795C129.011 224.25 128.303 220.704 127.064 217.691C125.826 214.677 124.056 212.018 121.755 209.713Z" fill="#003E66"/>
<path d="M132.551 210.068H147.948V252.082H154.673V210.068H170.246V203.686H132.551V210.068Z" fill="#003E66"/>
<path d="M183.695 230.1H205.993V223.718H183.695V210.068H207.586V203.686H176.97V252.082H208.825V245.877H183.695V230.1Z" fill="#003E66"/>
<path d="M252.36 240.559C250.767 242.686 248.82 244.282 246.697 245.345C244.573 246.409 242.095 246.941 239.264 246.941C236.786 246.941 234.309 246.409 232.185 245.523C230.061 244.459 228.292 243.218 226.699 241.445C225.106 239.673 224.044 237.723 223.16 235.418C222.275 233.114 221.921 230.632 221.921 227.973C221.921 225.491 222.275 223.009 223.16 220.704C224.044 218.4 225.283 216.273 226.699 214.5C228.292 212.727 230.061 211.309 232.185 210.245C234.309 209.182 236.609 208.65 239.087 208.65C241.211 208.65 243.334 209.182 245.458 210.068C247.405 210.954 249.174 212.373 250.59 214.145L250.944 214.5L256.607 210.245L256.253 209.714C254.129 207.054 251.652 205.104 248.643 203.864C245.635 202.623 242.449 202.091 239.264 202.091C235.725 202.091 232.362 202.8 229.354 204.041C226.345 205.282 223.868 207.232 221.567 209.359C219.443 211.664 217.674 214.323 216.435 217.336C215.196 220.35 214.665 223.718 214.665 227.264C214.665 230.986 215.373 234.354 216.612 237.368C217.851 240.382 219.62 243.218 221.744 245.345C223.867 247.65 226.522 249.423 229.531 250.664C232.539 251.904 235.725 252.614 239.264 252.614C243.157 252.614 246.52 251.904 249.705 250.486C252.714 249.068 255.368 246.941 257.669 243.927L258.023 243.573L253.068 239.318L252.36 240.559Z" fill="#003E66"/>
<path d="M304.744 227.973C304.744 230.632 304.213 233.114 303.329 235.418C302.444 237.723 301.205 239.85 299.612 241.445C298.02 243.218 296.073 244.459 293.949 245.523C291.826 246.586 289.348 246.941 286.693 246.941C284.039 246.941 281.561 246.409 279.438 245.523C277.314 244.459 275.367 243.218 273.775 241.445C272.182 239.673 270.943 237.723 270.058 235.418C269.173 233.114 268.819 230.632 268.819 227.973C268.819 225.314 269.35 222.832 270.058 220.527C270.943 218.223 272.182 216.095 273.775 214.5C275.367 212.727 277.314 211.486 279.438 210.423C281.561 209.359 284.039 209.005 286.693 209.005C289.348 209.005 291.826 209.536 293.949 210.423C296.073 211.486 298.02 212.727 299.612 214.5C301.205 216.273 302.444 218.223 303.329 220.527C304.39 222.832 304.744 225.314 304.744 227.973ZM310.054 217.868C308.815 214.855 307.045 212.018 304.744 209.891C302.444 207.586 299.789 205.814 296.781 204.573C293.772 203.332 290.41 202.623 286.693 202.623C282.977 202.623 279.615 203.332 276.606 204.573C273.598 205.814 270.943 207.586 268.642 209.891C266.342 212.195 264.572 214.855 263.333 217.868C262.095 220.882 261.387 224.427 261.387 227.973C261.387 231.518 262.095 235.064 263.333 238.077C264.572 241.091 266.342 243.927 268.642 246.055C270.943 248.359 273.598 250.132 276.606 251.373C279.615 252.614 282.977 253.323 286.693 253.323C290.41 253.323 293.772 252.614 296.781 251.373C299.789 250.132 302.444 248.359 304.744 246.055C307.045 243.75 308.815 241.091 310.054 238.077C311.292 235.064 312 231.518 312 227.973C311.823 224.25 311.292 220.882 310.054 217.868Z" fill="#003E66"/>
</svg>
